<svg xmlns="http://www.w3.org/2000/svg" viewBox="0 0 1000 1000">
    <title>
        Allocation
    </title>
    <path d="M500 497.5c-72.7 0-131.9-59.2-131.9-131.9S427.3 233.7 500 233.7s131.9 59.2 131.9 131.9S572.7 497.5 500 497.5zm0-238.8c-59 0-106.9 47.9-106.9 106.9S441 472.5 500 472.5s106.9-47.9 106.9-106.9c0-59-47.9-106.8-106.9-106.9z"/>
    <path d="M500 783.3c-6.5 0-12.8-2.6-17.5-7.1-2.3-2.3-57.2-56.2-112.8-133-32.9-45.4-59.2-89.4-78.1-130.8-24.3-53-36.6-102.2-36.6-146.1 0-135.3 109.7-245.1 245.1-245.1s245.1 109.7 245.1 245.1c0 43.9-12.3 93.1-36.7 146.2-18.9 41.3-45.2 85.3-78.1 130.8-55.6 76.8-110.5 130.7-112.8 133-4.8 4.5-11.1 7-17.6 7zm0-612.1c-107.5 0-195 87.5-195 195 0 66.8 36.2 152.2 104.8 247 27.8 38.2 57.9 74.6 90.2 109.1 32.3-34.5 62.4-70.9 90.2-109.1C658.8 518.4 695 433 695 366.2c0-107.5-87.5-195-195-195z"/>
</svg>
