<svg xmlns="http://www.w3.org/2000/svg" viewBox="0 0 1000 1000">
    <title>
        Attachement
    </title>
    <path d="M415.9 706.2c-79.4 0-143.7-64.4-143.7-143.8 0-33.1 11.5-65.2 32.4-90.9l273.9-335.4c36.7-45.4 103.3-52.5 148.7-15.8C772.6 157 779.7 223.6 743 269c-.2.3-.5.6-.7.9l-272.8 334c-23 29.1-65.3 34-94.3 10.9-29.1-23-34-65.3-10.9-94.3.4-.5.8-1 1.3-1.5l193.7-237.2c8.7-10.7 24.5-12.3 35.2-3.5s12.3 24.5 3.5 35.2l-193.8 237c-6.2 7.2-5.3 18 1.9 24.2 7.2 6.2 18 5.3 24.2-1.9.2-.2.3-.4.5-.6l272.8-334c19.5-23.8 15.9-58.9-7.9-78.4-23.8-19.5-58.9-15.9-78.4 7.9L343.4 503.2c-32.8 40.1-26.8 99.2 13.3 132s99.2 26.8 132-13.3l197.8-242.2c8.7-10.7 24.5-12.3 35.2-3.5s12.3 24.5 3.5 35.2L527.4 653.5c-27.4 33.4-68.3 52.8-111.5 52.7z"/>
</svg>
