<svg xmlns="http://www.w3.org/2000/svg" viewBox="0 0 1000 1000">
    <title>
        Audio
    </title>
    <path d="M566.4 199.8c-8.6-4.2-18.8-3.1-26.3 2.8L386.7 322.2H231.1c-13.8 0-25 11.2-25 25V605c0 13.8 11.2 25 25 25h155.6l153.4 119.6c10.9 8.5 26.6 6.5 35.1-4.3 3.4-4.4 5.3-9.8 5.3-15.4V222.3c0-9.6-5.5-18.3-14.1-22.5zM256.1 372.2h114.2V580H256.1V372.2zm274.4 306.4l-110.2-85.9V359.4l110.2-85.9v405.1zM664.7 356c-9.8-9.8-25.6-9.8-35.4 0s-9.8 25.6 0 35.4c46.7 46.8 46.7 122.5 0 169.3-9.8 9.8-9.8 25.6 0 35.4s25.6 9.8 35.4 0c66.1-66.2 66.1-173.9 0-240.1z"/>
    <path d="M737.3 283.4c-9.4-10.1-25.2-10.7-35.3-1.3s-10.7 25.2-1.3 35.3c.4.5.9.9 1.3 1.3 86.9 86.9 86.9 227.7 0 314.5-9.8 9.8-9.8 25.6 0 35.4s25.6 9.8 35.4 0c106.3-106.3 106.3-278.8-.1-385.2z"/>
</svg>
