<svg xmlns="http://www.w3.org/2000/svg" viewBox="0 0 1000 1000">
    <title>
        Cart
    </title>
    <path d="M648 596.1a89.13 89.13 0 0 0-84.73 61.9H459.93a89 89 0 0 0-84.77-61.85 89 89 0 1 0 84.8 116h103.28A89 89 0 1 0 648 596.1zM399.8 709.73A34.83 34.83 0 1 1 410 685.1a34.6 34.6 0 0 1-10.2 24.63zm272.84 0a34.83 34.83 0 1 1 10.2-24.63 34.6 34.6 0 0 1-10.2 24.61zM795.59 293.54a27.07 27.07 0 0 0-21.06-10.05H315.61c-2.67-16.85-5-31.41-6.69-42.11-3.51-22-12.44-41.14-25.84-55.27-15.45-16.31-35.61-24.92-58.28-24.92h-45a27.07 27.07 0 0 0 0 54.14h45c23.34 0 29.36 26.46 30.65 34.57 2.4 15.05 6 37.73 10.11 63.7q.14 1.26.39 2.48c13.57 85.6 32.45 204.94 32.7 206.51a27.07 27.07 0 0 0 26.74 22.84h290c17.59.08 44-1.9 70.26-11.84 26.67-10.1 46.72-26.37 58-47.06 30.45-55.89 46.65-120.36 57.37-170.29a27.07 27.07 0 0 0-5.43-22.7zm-99.5 167.08c-11.57 21.23-48.22 30.67-79.71 30.67H348.52c-5.24-33.08-15.29-96.62-24.33-153.65h416.39c-9.72 39.7-23.41 84.3-44.49 122.98z"/>
</svg>
