<svg xmlns="http://www.w3.org/2000/svg" viewBox="0 0 1000 1000">
    <title>
        Cloud
    </title>
    <path d="M736.3 371.6c-6.9 0-13.7.5-20.6 1.5-15.5-35.8-40.1-67-71.3-90.4-90.6-67.7-217.4-56.6-294.9 25.7l-.4-.1c-2.4-.5-10.8-2.8-25.7-2.8-47-.1-89.3 28.5-106.9 72.1C153 396 109.2 454.2 109.2 520.3c0 82 66.7 148.7 148.7 148.7h478.4c82 0 148.7-66.7 148.7-148.7s-66.7-148.7-148.7-148.7zm69.8 218.5c-18.5 18.6-43.6 29-69.8 28.9H257.9c-54.5 0-98.7-44.2-98.7-98.7 0-47.7 34.1-88.6 81.1-97.1 9.7-1.7 17.4-9 19.8-18.5 7.3-29 33.4-49.3 63.3-49.3 44.8 0 65.1 38.2 65.2 65.3 0 13.8 11.2 25 25 25s25-11.2 25-25c0-34.3-15.3-66.8-41.7-88.7 61.1-54.3 152-58.2 217.6-9.3 29.1 21.8 50.7 52.1 61.6 86.8 4.1 13.1 18.1 20.5 31.2 16.5 52.1-16.1 107.4 13.1 123.4 65.2 10.7 34.9 1.3 73-24.6 98.9z"/>
</svg>
