<svg xmlns="http://www.w3.org/2000/svg" viewBox="0 0 1000 1000">
    <title>
        Company
    </title>
    <path d="M810.87 356.56H537.09v-87.79a43.34 43.34 0 0 0-43.3-43.3H199.23a43.34 43.34 0 0 0-43.3 43.3v452a43.35 43.35 0 0 0 43.3 43.3h611.64a43.35 43.35 0 0 0 43.3-43.3V399.86a43.35 43.35 0 0 0-43.3-43.3zM411.56 715.05h-128.3V582.88h128.3zm71 0h-46V572.83a15 15 0 0 0-15-15H273.22a15 15 0 0 0-15 15v142.22h-53.29V274.47h283.16v440.58zm246.09 0h-128.3V582.88h128.3zm76.52 0h-51.52V572.83a15 15 0 0 0-15-15H590.3a15 15 0 0 0-15 15v142.22h-38.21V405.56h268.08z"/>
    <path d="M590.3 517.41h148.39a15 15 0 0 0 15-15v-49.78a15 15 0 0 0-15-15H590.3a15 15 0 0 0-15 15v49.83a15 15 0 0 0 15 14.95zm10-54.73h128.3v29.73H600.35zM421.61 437.67H273.22a15 15 0 0 0-15 15v49.83a15 15 0 0 0 15 15h148.39a15 15 0 0 0 15-15v-49.87a15 15 0 0 0-15-14.96zm-10 54.73H283.26v-29.73h128.3zM421.61 317.47H273.22a15 15 0 0 0-15 15v49.83a15 15 0 0 0 15 15h148.39a15 15 0 0 0 15-15v-49.88a15 15 0 0 0-15-14.95zm-10 54.73H283.26v-29.73h128.3z"/>
</svg>
