<svg xmlns="http://www.w3.org/2000/svg" viewBox="0 0 1000 1000">
    <title>
        Contact
    </title>
    <path d="M562.2 856c-8.8.1-17.6-.5-26.3-1.8-50.3-8-76.4-52.2-104.1-99.1l-1.6-2.7c-5.4-9.1-53.4-92.2-91.3-218-22.8-75.4-36.6-151.3-40.2-219.5l-.1-1.1c-2.6-50.3-.6-112.8 39.1-149.2C373.5 132 453.6 101.4 462.6 98c9.7-3.6 20.7-.9 27.5 6.9 24.9 28.2 41 62 50.2 85.4 10.7 27.3 17.9 55.5 19.8 77.4.9 10.7-5.1 20.8-15 25.1l-89.4 38.5c.4 28.2 3.7 91.7 24.2 161.2 20.7 70.2 58.9 134.2 76.6 161.7l79.3-21c11.1-2.9 22.8 2.1 28.3 12.2 10.5 19.3 20.2 46.8 26.3 75.5 5.3 24.5 10.5 61.6 5.4 98.9-1.4 10.3-9 18.6-19.1 21-7.7 1.8-67.2 15.2-114.5 15.2zm-88.9-129l1.6 2.7c25.9 43.9 43.1 71 68.9 75.1 26.1 4.2 74.4-3.2 104.2-9 1.5-39.1-8.4-81-19.5-108.8l-76.3 20.2c-10 2.7-20.7-1.2-26.7-9.7-2.6-3.6-63.5-89.6-93.4-190.8-30-101.7-26.3-189.3-26.1-193 .4-9.6 6.3-18 15.1-21.8l86.7-37.4c-6-29.4-20.9-70.7-44.3-103-28 11.6-72.3 32.2-91.8 50.1-18.7 17.2-26 52.1-23 109.8l.1 1.1c3.3 64.2 16.5 136 38.1 207.6 36.9 122.2 84.5 203.6 86.5 207l-.1-.1z"/>
</svg>
