<svg xmlns="http://www.w3.org/2000/svg" viewBox="0 0 1000 1000">
    <title>
        Delete
    </title>
    <path d="M668.9 267H331.1c-11.9.1-23.2 5.1-31.2 13.9-7.7 8.3-11.9 19.1-11.9 30.4v1.6L315 748c.5 23.5 19.7 42.4 43.2 42.4h283.5c23.5-.1 42.7-18.9 43.2-42.4L712 312.9v-1.6c0-11.3-4.3-22.2-11.9-30.4-8.1-8.8-19.3-13.8-31.2-13.9zm-33.6 473.4H364.7L338.3 317h323.3l-26.3 423.4zM305.7 239.7h388.6c13.8 0 25-11.2 25-25s-11.2-25-25-25h-110v-35.4c0-11.3-7.1-19.8-16.4-19.8H432.1c-9.4 0-16.4 8.5-16.4 19.8v35.4h-110c-13.8 0-25 11.2-25 25s11.2 25 25 25zm135-80.1h118.7v30.1H440.6l.1-30.1z"/>
</svg>
