<svg xmlns="http://www.w3.org/2000/svg" viewBox="0 0 1000 1000">
    <title>
        Dialog
    </title>
    <path d="M662.7 762.1c-19.5 0-88.4-3.5-137.5-50.2-28.1-26.8-44.5-62.3-49-105.9H277.8c-44.9 0-81.2-36.4-81.2-81.2V296.1c0-44.9 36.4-81.2 81.2-81.2h444.3c44.9 0 81.2 36.4 81.2 81.2v228.7c-.1 44.8-36.4 81.2-81.2 81.2H669c-.9 11.1-1.8 25.5-1.7 40.7.5 53.8 12.3 68.5 15.9 71.7 10.3 9.2 11.2 25 2 35.3-4.5 5-10.7 8-17.4 8.3-.4 0-2.2.1-5.1.1zM277.8 264.9c-17.2 0-31.2 14-31.2 31.2v228.7c0 17.2 14 31.2 31.2 31.2H500c13.8 0 25 11.2 25 25 0 40.9 11.7 72.8 34.7 94.7 19.2 18.2 43.7 27.3 64.3 31.9-4.2-16.9-6.4-37.2-6.5-61.1-.1-23.1 1.4-46.2 4.5-69.1 1.8-12.3 12.3-21.4 24.7-21.4h75.5c17.2 0 31.2-14 31.2-31.2V296.1c0-17.2-14-31.2-31.2-31.2H277.8z"/>
</svg>
