<svg xmlns="http://www.w3.org/2000/svg" viewBox="0 0 1000 1000">
    <title>
        Digital Service
    </title>
    <path d="M808.9 226.5H191.1c-16.8 0-30.4 13.6-30.4 30.4V667c0 16.8 13.6 30.4 30.4 30.4h247.1v57.8H287.1c-13.8 0-25 11.2-25 25s11.2 25 25 25h425.8c13.8 0 25-11.2 25-25s-11.2-25-25-25H561.8v-57.8h247.1c16.8 0 30.4-13.6 30.4-30.4V256.9c-.1-16.8-13.6-30.4-30.4-30.4zM536.8 755.1h-73.6v-57.8h73.6v57.8zm252.5-107.7H210.7V276.5h578.5v370.9z"/>
    <circle cx="440.1" cy="403.6" r="25.7"/>
    <circle cx="552.8" cy="405.1" r="25.7"/>
    <path d="M500 557.1c38.9.1 76.2-15.4 103.6-42.8 4.9-4.9 4.9-12.8 0-17.7s-12.8-4.9-17.7 0c-47.5 47.4-124.4 47.4-171.9 0-4.9-4.9-12.8-4.9-17.7 0s-4.9 12.8 0 17.7c27.5 27.4 64.8 42.8 103.7 42.8z"/>
</svg>
