<svg xmlns="http://www.w3.org/2000/svg" viewBox="0 0 1000 1000">
    <title>
        Discount
    </title>
    <path d="M778.81 718.7v-.25L683.27 267a47 47 0 0 0-15.06-26.14L525.35 119.58l-.19-.16a47.56 47.56 0 0 0-39.71-10.14l-101.52 21.63a46.89 46.89 0 0 0-32.69 25.24l-81.05 168.3a47.42 47.42 0 0 0-3.72 30L362 806v.18a47 47 0 0 0 46 37.21 48.35 48.35 0 0 0 9-.86h.25l325-68.7h.18a47.07 47.07 0 0 0 36.38-55.13zM315.64 345.3l79.81-165.73 98.57-21 140.43 119.2 83.7 395.71-318.46 69.23zm94.66 447.57l-5.43-25.69 318.45-69.23 5.82 27.52z"/>
    <path d="M441.16 629.41a12.49 12.49 0 0 0 16.93-5.09l138-256.49a12.5 12.5 0 1 0-22-11.84l-138 256.49a12.5 12.5 0 0 0 5.07 16.93zM425.09 463.47a43.25 43.25 0 1 0-43.25-43.25 43.3 43.3 0 0 0 43.25 43.25zm0-61.5a18.25 18.25 0 1 1-18.25 18.25A18.27 18.27 0 0 1 425.09 402zM560 569.4a43.25 43.25 0 1 0 43.25-43.25A43.3 43.3 0 0 0 560 569.4zm43.25-18.25A18.25 18.25 0 1 1 585 569.4a18.27 18.27 0 0 1 18.21-18.25z"/>
</svg>
