<svg xmlns="http://www.w3.org/2000/svg" viewBox="0 0 1000 1000">
    <title>
        Edit
    </title>
    <path d="M663.2 741.1c-7.5 0-14.5-3.3-19.3-9.1-.2-.2-20.7-25.1-41.4-51.2-44.4-56-46.6-62.9-48.4-68.5L409.8 160.8c-8.6-27 .6-52.4 21.5-59l64.6-20.6c20.9-6.7 43.1 8.7 51.7 35.6l144.3 451.6c1.8 5.5 4 12.5.3 83.8-1.7 33.3-4 65.3-4 65.7-1 13-11.9 23.1-25 23.2zm-61.8-145.3c3.8 6.9 20.5 28.8 40.8 54.5 1.7-32.7 2.5-60.2 1.7-68L500 132.2l-42.5 13.6 143.9 450zm42.8-12.3zM540.5 740.8H286.1c-13.8 0-25-11.2-25-25s11.2-25 25-25h254.5c13.8 0 25 11.2 25 25s-11.2 25-25.1 25z"/>
</svg>
