<svg xmlns="http://www.w3.org/2000/svg" viewBox="0 0 1000 1000">
    <title>
        Environmentally Friendly
    </title>
    <path d="M856.32 307.58a25 25 0 0 0-27.43-2.72c-87.64 46.21-158.86 46.5-227.73 46.78-53.21.22-108.24.44-165.53 23.17-89.33 35.5-124.82 94.53-138.87 137.8a209.45 209.45 0 0 0-9.91 74.3c-22.15 12.12-73.23 33.76-123.1 9.84a25 25 0 1 0-21.63 45.08 159.5 159.5 0 0 0 69.7 15.75c44.13 0 81.72-17.11 101.27-28.07a252.2 252.2 0 0 0 220 45.72c57.25-12.51 110.4-38.42 158-77 37.74-30.61 72-69.19 101.84-114.66 50.46-76.9 70.83-146.73 71.67-149.67a25 25 0 0 0-8.28-26.32zM345 526c16-47.1 52.71-82.34 109.08-104.74 48.49-19.24 96.48-19.43 147.29-19.64 47.34-.19 98.88-.42 156.93-15.67a933.7 933.7 0 0 1-165.43 109.23 933.34 933.34 0 0 1-256.14 88.29A159.49 159.49 0 0 1 345 526zm313.95 33.87c-41.43 33.45-87.53 55.86-137 66.6l-1.11.27a201.76 201.76 0 0 1-157.5-23.11 958.3 958.3 0 0 0 241-86.25 958.52 958.52 0 0 0 181.25-121.66 576.5 576.5 0 0 1-35.27 61.58c-26.99 40.9-57.73 75.41-91.38 102.58z"/>
</svg>
