<svg xmlns="http://www.w3.org/2000/svg" viewBox="0 0 1000 1000">
    <title>
        Euro
    </title>
    <path d="M769 657.79a25 25 0 0 0-35.36 0A251.58 251.58 0 0 1 312 541.72h264a25 25 0 0 0 0-50H304.7q-.27-5.83-.27-11.71a255.21 255.21 0 0 1 2.31-34.21h306.2a25 25 0 0 0 0-50H318.81a250.53 250.53 0 0 1 59.25-93.58c48.08-48.08 115.86-74 186-71.21 62.28 2.51 118.35 27.78 153.92 69.34.23.28.46.55.7.82l.56.61a25 25 0 0 0 40.47-28.43l-1.82-3.63-2.18-2.18C711.09 215.63 642 184.12 566 181.06c-84-3.39-165.41 27.89-223.33 85.81A299.8 299.8 0 0 0 266.3 395.8h-16.7a25 25 0 0 0 0 50h6.75a306.55 306.55 0 0 0-1.93 34.2c0 3.92.1 7.82.24 11.71h-5.06a25 25 0 0 0 0 50h11.13A301.49 301.49 0 0 0 769 693.15a25 25 0 0 0 0-35.36z"/>
</svg>
