<svg xmlns="http://www.w3.org/2000/svg" viewBox="0 0 1000 1000">
    <title>
        Filter
    </title>
    <path d="M757.7 161.9h-534c-22.6.1-40.9 18.4-40.9 41 0 1.5.1 2.9.4 4.4l23.4 132.3c1.4 13.1 12 21.7 39.3 41.9 16.8 12.5 40.3 29.1 66 46.8 24.2 16.6 48.8 33 67.5 45 9.8 6.3 17.3 11 23.1 14.4l8.9 249.2c.3 17 14.2 30.6 31.2 30.6h96.3c17 0 30.8-13.6 31.2-30.6l8.9-249.2c5.8-3.4 13.2-8.1 23.1-14.4 18.7-12 43.3-28.4 67.5-45 25.7-17.7 49.2-34.3 66-46.8 27.2-20.2 37.9-28.9 39.3-41.9l23.5-132.3c.3-1.4.4-2.9.4-4.4-.2-22.6-18.5-41-41.1-41zm-297 555.6l-7.9-220.2h75.7l-7.9 220.2h-59.9zm265.7-392.4c-9.6 8.2-37.1 28.9-87.2 63.2-43.8 30-78.8 52.5-90.4 58.9H432.4c-11.6-6.4-46.6-28.9-90.4-58.9-50-34.3-77.5-55-87.1-63.2l-20.1-113.2h511.8l-20.2 113.2z"/>
</svg>
