<svg xmlns="http://www.w3.org/2000/svg" viewBox="0 0 1000 1000">
    <title>
        Flag
    </title>
    <path d="M780.1 235.7c-8.4-4.2-18.5-3.3-26.1 2.3-23.8 17.6-58.7 25.8-103.9 24.3-41-1.4-90.2-11.1-142.4-28-65.5-21.3-195.9-38.6-286.6.9-9.1 4-15 13-15 22.9v557c0 13.8 11.2 25 25 25s25-11.2 25-25V615c30.8-10.3 69.6-14.9 113.3-13.5 42.5 1.4 88.5 8.9 122.8 20.1 57.3 18.6 109.8 28.8 156.1 30.4 56.7 1.9 102.3-9.6 135.3-34.1 6.4-4.7 10.1-12.2 10.1-20.1V258c.1-9.4-5.2-18.1-13.6-22.3zm-36.2 348.5c-23.2 13.1-54.7 19.1-93.8 17.8-41-1.4-90.2-11-142.4-28-37-12-94.6-22.8-154-22.8-33 0-66.6 3.3-97.6 11.5V275.2c30.8-10.3 69.6-14.9 113.3-13.5 42.5 1.4 88.5 8.9 122.8 20.1 57.4 18.6 109.9 28.9 156.1 30.4 36.6 1.2 68.5-3.1 95.5-12.9l.1 284.9z"/>
</svg>
