<svg xmlns="http://www.w3.org/2000/svg" viewBox="0 0 1000 1000">
    <title>
        Full Screen
    </title>
    <path d="M772.4 215.2H586.8c-13.8 0-25 11.2-25 25s11.2 25 25 25H712L537.4 439.8c-9.8 9.8-9.8 25.6 0 35.4 9.8 9.8 25.6 9.8 35.4 0l174.6-174.6v125.3c0 13.8 11.2 25 25 25s25-11.2 25-25V240.2c0-13.8-11.2-25-25-25zM459.9 517.2L285.3 691.9V566.6c0-13.8-11.2-25-25-25s-25 11.2-25 25v185.6c0 13.8 11.2 25 25 25h185.6c13.8 0 25-11.2 25-25s-11.2-25-25-25H320.7l174.6-174.6c9.8-9.8 9.8-25.6 0-35.4-9.8-9.7-25.6-9.7-35.4 0z"/>
</svg>
