<svg xmlns="http://www.w3.org/2000/svg" viewBox="0 0 1000 1000">
    <title>
        General
    </title>
    <path d="M502.35 264.28A204.8 204.8 0 0 0 295.2 466.7v4.6c0 39.89 14.37 80 34.21 135.47 12.88 36 28.92 80.9 45.17 137.44a25 25 0 0 0 24 18.09h202.5a25 25 0 0 0 24-18c16.22-55.89 32.19-100.46 45-136.28 20.08-56.05 34.6-96.58 34.64-136.71a204.8 204.8 0 0 0-202.42-207zm152.43 206.87c0 31.5-12.61 66.7-31.71 120-11.66 32.55-25.88 72.22-40.64 121.17h-165.1c-14.82-49.58-29.11-89.56-40.84-122.36-18.84-52.71-31.29-87.53-31.29-118.79v-.29-3.57a154.8 154.8 0 0 1 154.74-153h1.84a154.8 154.8 0 0 1 153 156.58v.26zM601.11 783h-202.5a25 25 0 0 0 0 50h202.5a25 25 0 0 0 0-50zM601.11 842h-202.5a25 25 0 1 0 0 50h202.5a25 25 0 0 0 0-50zM874.33 441.26H738.75a12.5 12.5 0 0 0 0 25h135.58a12.5 12.5 0 0 0 0-25zM688.64 304.74a12.46 12.46 0 0 0 8.82-3.64l78.69-78.41A12.5 12.5 0 1 0 758.51 205l-78.69 78.41a12.5 12.5 0 0 0 8.82 21.36zM261.25 441.26H125.67a12.5 12.5 0 1 0 0 25h135.58a12.5 12.5 0 0 0 0-25zM302.54 296.67A12.5 12.5 0 0 0 320.18 279l-78.69-78.41a12.5 12.5 0 0 0-17.65 17.71zM500 241.08a12.5 12.5 0 0 0 12.5-12.5V93a12.5 12.5 0 1 0-25 0v135.58a12.5 12.5 0 0 0 12.5 12.5z"/>
</svg>
