<svg xmlns="http://www.w3.org/2000/svg" viewBox="0 0 1000 1000">
    <title>
        Hardware
    </title>
    <path d="M832.9 613.8H167.1c-17.3 0-31.4-14.1-31.4-31.4V310.3c0-17.3 14.1-31.4 31.4-31.4H833c17.3 0 31.4 14.1 31.4 31.4v272.1c-.1 17.4-14.1 31.4-31.5 31.4zm-647.3-50h628.7V328.9H185.6v234.9z"/>
    <path d="M764.8 403.7H235.2c-6.9 0-12.5-5.6-12.5-12.5s5.6-12.5 12.5-12.5h529.6c6.9 0 12.5 5.6 12.5 12.5s-5.6 12.5-12.5 12.5zM740 522.2c-20.6 0-37.3-16.7-37.2-37.3 0-20.6 16.7-37.3 37.3-37.2 20.6 0 37.3 16.7 37.2 37.3 0 20.6-16.7 37.2-37.3 37.2zm0-49.5c-6.8 0-12.3 5.5-12.2 12.3 0 6.8 5.5 12.3 12.3 12.2 6.7 0 12.2-5.5 12.2-12.2 0-6.8-5.5-12.3-12.3-12.3z"/>
</svg>
