<svg xmlns="http://www.w3.org/2000/svg" viewBox="0 0 1000 1000">
    <title>
        Install
    </title>
    <path d="M482.3 628.3c9.8 9.8 25.6 9.8 35.4 0l158.6-158.6c9.8-9.8 9.8-25.6 0-35.4s-25.6-9.8-35.4 0L525 550.2V169.4c0-13.8-11.2-25-25-25s-25 11.2-25 25v380.8L359 434.3c-9.8-9.8-25.6-9.8-35.4 0-9.8 9.8-9.8 25.6 0 35.4l158.7 158.6z"/>
    <path d="M762 565.7c-13.8 0-25 11.2-25 25V747H263V593.3c0-13.8-11.2-25-25-25s-25 11.2-25 25v154.3c0 28.2 16.9 49.4 39.4 49.4h495.2c22.5 0 39.4-21.2 39.4-49.4v-157c0-13.8-11.2-25-25-24.9z"/>
</svg>
