<svg xmlns="http://www.w3.org/2000/svg" viewBox="0 0 1000 1000">
    <title>
        Logout
    </title>
    <path d="M817.94 454.43L694.88 331.37a25 25 0 0 0-35.36 35.36l82.09 82.09H444.9a25 25 0 0 0 0 50h293.3l-78.67 78.67a25 25 0 0 0 35.36 35.36l123.05-123.07a25 25 0 0 0 0-35.36z"/>
    <path d="M597.23 610.7a25 25 0 0 0-25 25v86.14h-305.6v-483h305.6V325a25 25 0 0 0 50 0v-92.19c0-25-15.55-43.93-36.17-43.93H252.8c-20.62 0-36.17 18.88-36.17 43.93v495.11c0 25 15.55 43.93 36.17 43.93h333.26c20.62 0 36.17-18.88 36.17-43.93V635.7a25 25 0 0 0-25-25z"/>
</svg>
