<svg xmlns="http://www.w3.org/2000/svg" viewBox="0 0 1000 1000">
    <title>
        Mess
    </title>
    <path d="M776.11 772.11l-31.76-296.48a25 25 0 0 0 15.78-23.24v-47.83a25 25 0 0 0-14-22.44l-255.25-125.3v-49.61h82.28a12.5 12.5 0 0 0 12.5-12.5v-57.55a12.5 12.5 0 0 0-12.5-12.5h-94.78a12.5 12.5 0 0 0-12.5 12.5v119.66l-255.27 125.3a25 25 0 0 0-14 22.44v47.84a25 25 0 0 0 16.91 23.6L181.8 772.11a25 25 0 0 0 24.86 27.66h212.95A25 25 0 0 0 443.22 783l35.34-101.9 36.12 102a25 25 0 0 0 23.57 16.66h213a25 25 0 0 0 24.86-27.66zM490.88 149.66h69.78v32.54h-69.78zM246.62 420.14l231.76-113.76 231.75 113.76v7.26H246.62zm309.3 329.64l-54-152.6a25 25 0 0 0-23.57-16.66h-.08a25 25 0 0 0-23.54 16.81l-52.91 152.45H234.48l29.18-272.38h430.6l29.18 272.38z"/>
</svg>
