<svg xmlns="http://www.w3.org/2000/svg" viewBox="0 0 1000 1000">
    <title>
        Mobile
    </title>
    <path d="M685.32 145.06L458.4 111a100.65 100.65 0 0 0-114.34 84.52L266.7 711.5a100.62 100.62 0 0 0 65.61 109.62 101.65 101.65 0 0 0 18.91 4.71l226.87 34h.08c54.44 8 105.48-29.76 113.78-84.22l77.42-516.31a100.75 100.75 0 0 0-84.05-114.24zM585.48 810.4l-226.84-34a50.54 50.54 0 0 1-42.49-57.48l4.79-32 326.42 48.98-4.84 32.27a50.47 50.47 0 0 1-57.04 42.23zm134.45-558.48l-68.87 459.26-326.41-48.95L393.51 203A50.6 50.6 0 0 1 451 160.48l226.74 34a50.65 50.65 0 0 1 42.19 57.44z"/>
    <circle cx="478.48" cy="749.63" r="29.15" transform="rotate(-81.47 478.51 749.635)"/>
</svg>
