<svg xmlns="http://www.w3.org/2000/svg" viewBox="0 0 1000 1000">
    <title>
        Mobile Cart
    </title>
    <path d="M777.53 693l-100-513c-10-54-63-90-117-79l-226 43c-26 5-49 21-64 43s-20 49-15 75l99 512c6 27 21 49 43 64a95.75 95.75 0 0 0 56 18c6 0 13-1 245-46a100.62 100.62 0 0 0 79-117zm-473-440a46.29 46.29 0 0 1 8-38c7-11 19-19 32-22l225-43c27-5 54 12 59 40l89 456-324 62zm384 508l-225 44c-13 2-27 0-38-8s-19-19-21-32l-7-32 324-63 7 32c5 27-13 54-40 59zm-127-50c-16 3-26 18-23 34s19 26 34 23c16-3 27-18 23-34-3-16-18-26-34-23zm13-258a42.48 42.48 0 0 0-33 36l-33 7c-9-16-26-25-45-21-22 4-37 26-33 49 4 20 22 33 41 33h8c18-4 32-19 34-37l33-6c7 13 21 22 36 22 3 0 6 0 8-1a40.72 40.72 0 0 0 33-49c-4-22-26-37-49-33zm-89 72c-2 4-6 6-11 7-4 1-8 0-12-2a19 19 0 0 1-7-11c-1-4 0-9 2-13 3-3 7-6 11-7h3a16.89 16.89 0 0 1 10 3 17.69 17.69 0 0 1 7 11c0 4 0 8-3 12zm114-34a15.92 15.92 0 0 1-3 13 18.34 18.34 0 0 1-10 7 27.68 27.68 0 0 1-13-3c-4-2-6-6-7-11-2-9 4-17 13-19a19.07 19.07 0 0 1 13 2c3 3 6 7 7 11zm-192-147l21 110a11.88 11.88 0 0 0 12 10h3l110-22c19-2 36-12 46-28 0-1 1-2 1-3 6-22 10-45 10-68 0-4-1-8-4-10a11.28 11.28 0 0 0-11-3l-160 31-6-34c-1-4-3-7-6-8a9.59 9.59 0 0 0-9-2l-43 8c-7 1-11 8-10 15 1 6 8 11 15 10zm177 14a213.53 213.53 0 0 1-8 44c-6 9-15 14-26 15h-1l-99 20-10-51z"/>
</svg>
