<svg xmlns="http://www.w3.org/2000/svg" viewBox="0 0 1000 1000">
    <title>
        Network
    </title>
    <path d="M832.94 204a81 81 0 0 0-74.36 113.27L634 398.09A128 128 0 0 0 592.35 353l41.18-86.29a73.06 73.06 0 1 0-22-11.92l-41.31 86.56a127 127 0 0 0-149.92 42.51l-114.37-76a105.9 105.9 0 1 0-16.09 19.32l117.65 78.19a127 127 0 0 0 48.63 162.08l-77.78 130.87A91.33 91.33 0 1 0 399 712.41l79.61-134a126.93 126.93 0 0 0 118-16.08l59.69 59.69a70.71 70.71 0 1 0 19.16-16.19L615.5 545.8A127 127 0 0 0 644 421.43l128-83a81 81 0 1 0 61-134.38zm-176.35-29.24a22.86 22.86 0 1 1-22.86 22.86 22.89 22.89 0 0 1 22.86-22.86zM217.26 306.12a55.65 55.65 0 1 1 55.65-55.65 55.72 55.72 0 0 1-55.65 55.65zM338 821.07A41.09 41.09 0 1 1 379.13 780 41.13 41.13 0 0 1 338 821.07zm184.55-284.8a77.09 77.09 0 1 1 77.09-77.09 77.17 77.17 0 0 1-77.05 77.09zM710.8 646.39A20.58 20.58 0 1 1 690.22 667a20.6 20.6 0 0 1 20.58-20.61zm122.14-330.24A31.06 31.06 0 1 1 864 285.09a31.09 31.09 0 0 1-31.06 31.06z"/>
</svg>
