<svg xmlns="http://www.w3.org/2000/svg" viewBox="0 0 1000 1000">
    <title>
        Order
    </title>
    <path d="M698 816.5H253.16c-21.63 0-37.93-20.17-37.93-46.91V242.67c0-26.74 16.31-46.91 37.93-46.91H461.1a25 25 0 0 1 0 50H265.22V766.5h420.69V573.14a25 25 0 1 1 50 0v196.45c0 26.74-16.31 46.91-37.91 46.91z"/>
    <path d="M630.83 530.21l-43.27-41L529 478l-14.21-57.92-43.27-41 19.37-56.41-14.21-57.92 46.79-37 19.37-56.41 59.36-5.82 46.79-37L702 155.71l59.36-5.82 29.95 51.58 53.08 27.2-2.69 59.58 29.95 51.58-34.47 48.67-2.69 59.58-55.31 22.3L744.73 519l-58.59-11.1zm-61-95.31l41.45 7.88 30.61 29L681.06 456l41.45 7.88 24.39-34.43 39.1-15.74 1.9-42.15 24.39-34.43-21.19-36.48 1.9-42.15-37.55-19.24-21.19-36.48-42 4.12-37.55-19.24-33.1 26.16-42 4.12-13.61 39.9L532.87 284l10 41-13.7 39.9 30.61 29zm240.39-4zM597.41 700.94H353.72a12.5 12.5 0 0 1 0-25h243.69a12.5 12.5 0 0 1 0 25zM597.41 620.51H353.72a12.5 12.5 0 1 1 0-25h243.69a12.5 12.5 0 0 1 0 25zM500.36 540.64H353.72a12.5 12.5 0 1 1 0-25h146.64a12.5 12.5 0 1 1 0 25z"/>
</svg>
