<svg xmlns="http://www.w3.org/2000/svg" viewBox="0 0 1000 1000">
    <title>
        Press
    </title>
    <path d="M831 316.59h-38.13v-55.92a25 25 0 0 0-25-25H169a25 25 0 0 0-25 25v398.58c0 42.94 24.32 75.32 56.56 75.32h598.89c32.25 0 56.56-32.38 56.56-75.32V341.59a25 25 0 0 0-25.01-25zm-629.37 368c-2.4-1.78-7.63-9.84-7.63-25.32v-373.6h548.87v373.58a100 100 0 0 0 3.13 25.32zM806 659.28c0 12.9-3.63 20.63-6.22 23.88-2.89-3.42-6.9-11.29-6.9-23.9V366.59H806z"/>
    <path d="M687.94 334.34H256.8a25 25 0 0 0 0 50h431.14a25 25 0 0 0 0-50zM428.48 463.25H263.71a12.5 12.5 0 1 0 0 25h164.77a12.5 12.5 0 0 0 0-25zM428.48 549.09H263.71a12.5 12.5 0 1 0 0 25h164.77a12.5 12.5 0 0 0 0-25zM687.94 456.35H533a12.5 12.5 0 0 0-12.5 12.5v105.57a12.5 12.5 0 0 0 12.5 12.5h154.94a12.5 12.5 0 0 0 12.5-12.5V468.85a12.5 12.5 0 0 0-12.5-12.5zm-12.5 105.58H545.55v-80.58h129.89z"/>
</svg>
