<svg xmlns="http://www.w3.org/2000/svg" viewBox="0 0 1000 1000">
    <title>
        Price List
    </title>
    <path d="M653.34 561A12.5 12.5 0 0 0 671 543.3a104.55 104.55 0 0 0-170.23 33.2H495a12.5 12.5 0 0 0-1.26 24.94 105.45 105.45 0 0 0-.86 24.12 12.49 12.49 0 0 0 2.12 24.8h2.9A104.6 104.6 0 0 0 671 691.17a12.5 12.5 0 0 0-17.68-17.68 79.55 79.55 0 0 1-128.59-23.13h79a12.5 12.5 0 0 0 0-25H518a80.2 80.2 0 0 1 1.15-23.87h97a12.5 12.5 0 1 0 0-25h-87.4A79.56 79.56 0 0 1 653.34 561z"/>
    <path d="M737.74 152.35H295.11c-21.56 0-37.82 20.9-37.82 48.61v567.75c0 27.71 16.26 48.61 37.82 48.61h442.63c21.56 0 37.82-20.9 37.82-48.61V201c-.01-27.76-16.26-48.65-37.82-48.65zm-12.18 615H307.29v-565h418.26z"/>
    <path d="M447.57 461.68h214.61a12.5 12.5 0 0 0 0-25H447.57a12.5 12.5 0 0 0 0 25zM370.66 462.12h30.89a12.5 12.5 0 0 0 0-25h-30.89a12.5 12.5 0 0 0 0 25zM447.57 380.18h214.61a12.5 12.5 0 0 0 0-25H447.57a12.5 12.5 0 1 0 0 25zM370.66 380.61h30.89a12.5 12.5 0 0 0 0-25h-30.89a12.5 12.5 0 0 0 0 25zM447.57 298.67h214.61a12.5 12.5 0 0 0 0-25H447.57a12.5 12.5 0 1 0 0 25zM370.66 299.11h30.89a12.5 12.5 0 0 0 0-25h-30.89a12.5 12.5 0 0 0 0 25z"/>
</svg>
