<svg xmlns="http://www.w3.org/2000/svg" viewBox="0 0 1000 1000">
    <title>
        Price
    </title>
    <path d="M756.24 718.7v-.25L660.7 267a47 47 0 0 0-15.06-26.14L502.77 119.58l-.2-.16a47.56 47.56 0 0 0-39.71-10.14L361.37 130.9a46.89 46.89 0 0 0-32.71 25.24l-81.05 168.31a47.42 47.42 0 0 0-3.72 30L339.4 806v.18a47 47 0 0 0 46 37.21 48.35 48.35 0 0 0 9-.86h.25l325-68.7h.18a47.07 47.07 0 0 0 36.41-55.13zM293.06 345.3l79.81-165.73 98.57-21 140.43 119.2 83.7 395.71-318.45 69.23zm94.67 447.56l-5.43-25.69 318.46-69.23 5.82 27.52z"/>
    <path d="M431 344.91a56.1 56.1 0 0 0 30.7 9.16 57 57 0 0 0 11.81-1.24 56.49 56.49 0 1 0-42.5-7.92zm4.42-64.52a31.49 31.49 0 1 1-4.42 23.69 31.28 31.28 0 0 1 4.37-23.69z"/>
</svg>
