<svg xmlns="http://www.w3.org/2000/svg" viewBox="0 0 1000 1000">
    <title>
        Print
    </title>
    <path d="M786.5 325.2h-96.6V178c0-13.8-11.2-25-25-25H321.3c-13.8 0-25 11.2-25 25v147.2h-89.1c-13.8 0-25 11.2-25 25v244.1c0 13.8 11.2 25 25 25h89.1v82.5c0 13.8 11.2 25 25 25h343.6c13.8 0 25-11.2 25-25v-82.5h96.6c13.8 0 25-11.2 25-25V350.2c0-13.8-11.2-25-25-25zM346.3 203h293.6v122.2H346.3V203zm0 473.8V467.5h293.6v209.3H346.3zm415.2-107.5h-71.6V467.5h19.7c6.9 0 12.5-5.6 12.5-12.5s-5.6-12.5-12.5-12.5H275.2c-6.9 0-12.5 5.6-12.5 12.5s5.6 12.5 12.5 12.5h21.1v101.9h-64.1V375.2h529.3v194.1z"/>
</svg>
