<svg xmlns="http://www.w3.org/2000/svg" viewBox="0 0 1000 1000">
    <title>
        Process
    </title>
    <path d="M512.46 595.86A108.36 108.36 0 1 1 620.81 487.5a108.48 108.48 0 0 1-108.35 108.36zm0-191.72a83.36 83.36 0 1 0 83.36 83.36 83.45 83.45 0 0 0-83.36-83.36z"/>
    <path d="M480.6 811h-.54a47.76 47.76 0 0 1-47.17-48v-34.82a253.91 253.91 0 0 1-33.35-13.64l-24.77 24.77-.77.76a47.71 47.71 0 0 1-67.33-.77l-45.2-45.08-.79-.79a47.71 47.71 0 0 1 .78-67.34l24.54-24.6A241.23 241.23 0 0 1 272.11 568h-36a47.71 47.71 0 0 1-47.17-48.09v-64.46-.92A47.71 47.71 0 0 1 237 407.36h34.81A255 255 0 0 1 285.67 374L261 349.34l-.8-.81a47.71 47.71 0 0 1 .8-67.31L306.18 236l.81-.8a47.76 47.76 0 0 1 67.32.82l24.52 24.57a241.12 241.12 0 0 1 33.51-13.93V212v-.92a47.71 47.71 0 0 1 48.07-47.17h65.36A47.77 47.77 0 0 1 592.94 212v34.8a254.89 254.89 0 0 1 33.43 13.9l24.68-24.7.78-.77a47.71 47.71 0 0 1 67.35.79l45.11 45.18.76.77a47.77 47.77 0 0 1-.78 67.34L739.61 374a253.9 253.9 0 0 1 13.65 33.35h35.87a49.16 49.16 0 0 1 47.8 46.87V520.41a47.71 47.71 0 0 1-47.69 47.17h-35.86a274.48 274.48 0 0 1-13.7 32.78l25.24 25.24.81.82a47.71 47.71 0 0 1-.8 67.3l-45.2 45.2-.82.81a47.71 47.71 0 0 1-67.31-.8l-25-25a233.17 233.17 0 0 1-33.15 13.87v36.02A47.71 47.71 0 0 1 545.42 811H480.6zm2.29-50h60.6v-52a25 25 0 0 1 19.2-24.32 183.62 183.62 0 0 0 54.91-23 25 25 0 0 1 30.94 3.51l37.12 37.12 42.61-42.61-37.12-37.12a25 25 0 0 1-3.87-30.35 224.47 224.47 0 0 0 23.43-56 25 25 0 0 1 24.16-18.57h52.07v-60.3h-52.52a25 25 0 0 1-24.29-19.07 204.13 204.13 0 0 0-22.88-56 25 25 0 0 1 3.8-30.45l36.57-36.6-42.52-42.59-36.66 36.66a25 25 0 0 1-30.58 3.73 205.16 205.16 0 0 0-56-23.3 25 25 0 0 1-18.91-24.25v-51.57h-60.6v51.59a25 25 0 0 1-19.14 24.3 191.57 191.57 0 0 0-55.59 23.12 25 25 0 0 1-30.8-3.63l-36.57-36.64-42.59 42.61 36.66 36.66a25 25 0 0 1 3.68 30.6 205.18 205.18 0 0 0-23.3 55.93 25 25 0 0 1-24.24 18.9H238.9V518h52a25 25 0 0 1 24.3 19.14 191.59 191.59 0 0 0 23.12 55.59 25 25 0 0 1-3.61 30.78l-36.66 36.69 42.61 42.5 36.72-36.7a25 25 0 0 1 30.46-3.81 204.13 204.13 0 0 0 56 22.88 25 25 0 0 1 19.07 24.29z"/>
</svg>
