<svg xmlns="http://www.w3.org/2000/svg" viewBox="0 0 1000 1000">
    <title>
        Profil
    </title>
    <path d="M505.61 552.84c-56.11 0-106.31-24.9-141.35-70.12-31.69-40.9-49.15-95.39-49.15-153.42s17.44-107.75 50.44-143.94c34.34-37.67 82.77-57.57 140.06-57.57s105.72 19.91 140.06 57.57c33 36.19 50.44 86 50.44 143.94S678.65 441.81 647 482.72c-35.08 45.22-85.27 70.12-141.39 70.12zm0-375.06c-42.85 0-78.5 14.27-103.11 41.26-24.46 26.83-37.38 65-37.38 110.25 0 47 13.73 90.61 38.67 122.8 17.94 23.15 50.16 50.75 101.82 50.75s83.89-27.6 101.82-50.75c24.94-32.19 38.67-75.8 38.67-122.8 0-45.3-12.93-83.42-37.38-110.25-24.61-26.99-60.26-41.26-103.11-41.26zM783.4 771.59a25 25 0 0 1-24.06-18.26C739.59 682.84 703 641 641.59 619.38c-20.19 14.11-64.77 38.83-129.32 38.83s-109.13-24.71-129.32-38.83c-61.44 21.66-98 63.45-117.75 133.94a25 25 0 1 1-48.2-13.48c12.82-45.77 32-81.79 58.65-110.13 27.2-28.93 61.54-49.25 105-62.13a24.44 24.44 0 0 1 24.06 5.6c2.43 2.17 40.41 35 107.52 35 67.9 0 107.09-34.64 107.46-35a25 25 0 0 1 24.12-5.65c43.44 12.88 77.78 33.2 105 62.13 26.64 28.34 45.83 64.36 58.65 110.13a25 25 0 0 1-24.09 31.75z"/>
    <circle cx="555.84" cy="318.16" r="21.41"/>
    <circle cx="455.8" cy="318.16" r="21.41"/>
    <path d="M502.82 443.83A115.46 115.46 0 0 1 420.93 410a12.5 12.5 0 1 1 17.68-17.68 90.92 90.92 0 0 0 128.43 0A12.5 12.5 0 1 1 584.72 410a115.46 115.46 0 0 1-81.9 33.83z"/>
</svg>
