<svg xmlns="http://www.w3.org/2000/svg" viewBox="0 0 1000 1000">
    <title>
        Qualitiy
    </title>
    <path d="M500 195.1c-66.6 0-120.6 54-120.6 120.7s54 120.6 120.6 120.6 120.6-54 120.6-120.6-54-120.6-120.6-120.7zm0 216.3c-52.8 0-95.6-42.8-95.6-95.7 0-52.8 42.8-95.6 95.7-95.6s95.6 42.8 95.6 95.7c-.1 52.8-42.9 95.5-95.7 95.6z"/>
    <path d="M715.6 338.3l-19.8-45.7 8-49.2c1.6-9.7-2.6-19.4-10.8-24.8l-41.3-27.8-19.8-45.7c-3.9-9-12.7-14.9-22.5-15.1l-49.8-1-41.4-27.7c-8.1-5.4-18.7-5.6-27-.5L448.8 127l-49.8-1c-9.8-.2-18.8 5.4-23 14.2l-21.6 44.9-42.4 26.1c-8.3 5.1-12.9 14.7-11.7 24.4l6.1 49.4-21.6 45c-4.2 8.8-2.9 19.3 3.3 26.8l31.9 38.3 6.1 49.5c1.2 9.7 8 17.8 17.3 20.8l37.2 11.7-8.5 274.8c-.4 13.8 10.4 25.3 24.2 25.8 5.8.2 11.5-1.7 16-5.2l87.6-67.6 87.7 67.6c10.9 8.4 26.6 6.4 35.1-4.5 3.5-4.6 5.4-10.3 5.2-16l-8.4-271.7 32.3-8.8c9.4-2.6 16.5-10.4 18.1-20.1l8-49.2 33.3-37c6.6-7.4 8.3-17.9 4.4-26.9zm-200.3 315c-9-6.9-21.5-6.9-30.5 0l-61 47.1 5.5-176.4c5.8 3.5 12.9 4.5 19.5 2.7l48.1-13.1 47.5 15c9.3 2.9 19.5.2 26.1-7.1l.4-.4 5.6 179.4-61.2-47.2zM635.8 374c-3.2 3.6-5.3 8-6.1 12.7l-6.6 40.6-39.7 10.8c-4.6 1.3-8.8 3.8-12 7.4L544 476l-39.2-12.3c-4.6-1.4-9.5-1.5-14.1-.3L451 474.2l-26.3-31.6c-3.1-3.7-7.1-6.4-11.7-7.8l-39.2-12.3-5.1-40.8c-.6-4.8-2.5-9.2-5.6-12.9l-26.3-31.6 17.8-37c2.1-4.3 2.9-9.1 2.3-13.9l-5.1-40.8 35-21.6c4.1-2.5 7.4-6.1 9.4-10.5l17.8-37 41.1.8c4.8.1 9.5-1.2 13.6-3.7l35-21.6 34.1 22.9c4 2.6 8.7 4.1 13.4 4.1l41.1.8 16.3 37.7c1.9 4.4 5 8.1 9 10.8l34.1 22.9-6.6 40.6c-.8 4.7-.2 9.6 1.7 14l16.3 37.7-27.3 30.6z"/>
</svg>
