<svg xmlns="http://www.w3.org/2000/svg" viewBox="0 0 1000 1000">
    <title>
        Question
    </title>
    <path d="M500 793.25a319 319 0 1 1 225.56-93.43A316.9 316.9 0 0 1 500 793.25zm0-588a269 269 0 1 0 190.21 78.79A267.23 267.23 0 0 0 500 205.26z"/>
    <path d="M501.27 585.35a25 25 0 0 1-24.88-22.89l-5.45-64.11a25 25 0 0 1 24.66-27.11c.19 0 26.48-.54 51.56-11 13.17-5.5 23.43-12.65 30.49-21.25 8.4-10.25 12.49-22.77 12.49-38.29 0-38.93-29-56-46.24-62.75-34.87-13.58-89-10.07-125.54 29.7a25 25 0 0 1-36.83-33.81 163.49 163.49 0 0 1 87.56-49.49c31.44-6.59 64.45-4.1 93 7 48.9 19 78.09 59.92 78.09 109.34 0 48.87-26.72 86.63-75.24 106.31a199.28 199.28 0 0 1-42 11.56l3.37 39.67a25 25 0 0 1-22.79 27q-1.18.13-2.25.12zM500 689.59c-20.71 0-37.5-13.53-37.5-30.22V642.2c0-16.69 16.79-30.22 37.5-30.22s37.5 13.53 37.5 30.22v17.17c0 16.69-16.79 30.22-37.5 30.22z"/>
</svg>
