<svg xmlns="http://www.w3.org/2000/svg" viewBox="0 0 1000 1000">
    <title>
        Recruting
    </title>
    <path d="M875.15 742.38L707.07 567.45a305.76 305.76 0 1 0-117.74 111.11L758.57 854.7a25 25 0 0 0 17.55 7.67h.48a25 25 0 0 0 17.36-7l80.52-77.67a25 25 0 0 0 .67-35.32zM189 408a256.37 256.37 0 1 1 449.64 168.41c-19.58-40.35-50.67-65.91-95.78-79.28A12.5 12.5 0 0 0 530.8 500c-.27.25-27.75 25.24-76.88 25.24a129.66 129.66 0 0 1-56.75-12.57C384.14 506.36 377.05 500 377 500a12.5 12.5 0 0 0-12-2.87c-49.58 14.7-82.22 44.11-101.26 91.72A254.68 254.68 0 0 1 189 408zm94.66 199c15-43.64 40.83-70 82.28-83.88 12.16 8.93 42.57 27.16 88 27.16s75.82-18.24 88-27.16c37.77 12.69 62.59 35.66 78 72.67A256.39 256.39 0 0 1 283.67 607zm493.61 195L632.09 650.9A311.15 311.15 0 0 0 662 624.59q7.86-7.86 15.07-16.19L821.81 759z"/>
    <path d="M449.35 482.91c37 0 70.16-16.44 93.29-46.3 21.11-27.25 32.74-63.62 32.74-102.4 0-38.59-11.54-71.65-33.38-95.61-22.65-24.85-54.69-38-92.65-38s-70 13.13-92.65 38c-21.84 24-33.39 57-33.39 95.61 0 38.78 11.63 75.15 32.74 102.4 23.14 29.86 56.27 46.3 93.3 46.3zm-74.17-227.46c17.79-19.51 43.43-29.82 74.17-29.82s56.38 10.31 74.17 29.82c17.57 19.27 26.86 46.51 26.86 78.77 0 33.27-9.77 64.2-27.5 87.09-12.94 16.7-36.2 36.61-73.53 36.61S388.76 438 375.82 421.3c-17.74-22.89-27.5-53.82-27.5-87.09 0-32.21 9.29-59.49 26.86-78.76z"/>
    <circle cx="483.8" cy="326.57" r="14.69"/>
    <circle cx="415.18" cy="326.57" r="14.69"/>
    <path d="M447.44 416.75a82.83 82.83 0 0 0 59-24.42 12.5 12.5 0 0 0-17.68-17.68 58.38 58.38 0 0 1-82.56 0 12.5 12.5 0 0 0-17.68 17.68 82.83 82.83 0 0 0 58.92 24.42z"/>
</svg>
