<svg xmlns="http://www.w3.org/2000/svg" viewBox="0 0 1000 1000">
    <title>
        Refresh
    </title>
    <path d="M786.2 475c-13.8 0-25 11.2-25 25 0 144.3-117.1 261.3-261.4 261.2-54.2 0-107.1-16.9-151.3-48.3l57.5-11.3c13.5-2.7 22.4-15.8 19.7-29.4-2.7-13.5-15.8-22.4-29.4-19.7l-113.7 22.3c-13.5 2.7-22.3 15.8-19.7 29.4l22.4 113.7c2.7 13.5 15.8 22.4 29.4 19.7 13.5-2.7 22.4-15.8 19.7-29.4L324.3 757c141.9 97 335.6 60.6 432.7-81.3 35.4-51.8 54.3-113 54.3-175.7 0-13.8-11.2-25-25.1-25 .1 0 .1 0 0 0zM500 238.8c54.3-.1 107.3 16.8 151.5 48.3L594 298.4c-13.5 2.7-22.4 15.8-19.7 29.4 2.7 13.5 15.8 22.4 29.4 19.7l113.7-22.4c13.5-2.7 22.4-15.8 19.7-29.3l-22.3-113.7c-2.7-13.5-15.8-22.4-29.4-19.7s-22.4 15.8-19.7 29.4l10.1 51.3c-141.9-97-335.6-60.6-432.7 81.3-35.4 51.8-54.3 113-54.3 175.7 0 13.8 11.2 25 25 25s25-11.2 25-25c-.1-144.4 116.9-261.3 261.2-261.3z"/>
</svg>
