<svg xmlns="http://www.w3.org/2000/svg" viewBox="0 0 1000 1000">
    <title>
        Reservation
    </title>
    <path d="M746.53 261.94h-66.15v-35.63a25 25 0 1 0-50 0v35.63H368.83v-35.63a25 25 0 0 0-50 0v35.63h-65.36a41.29 41.29 0 0 0-41.16 41.32v392.4A41.29 41.29 0 0 0 253.47 737h493.06a41.29 41.29 0 0 0 41.16-41.32V303.25a41.29 41.29 0 0 0-41.16-41.31zm-427.7 50v8.24a25 25 0 1 0 50 0v-8.24h261.55v8.24a25 25 0 0 0 50 0v-8.24h57.31v91.51l-475.39-6.11v-85.4zM262.31 687V422.35l475.39 6.11V687z"/>
    <path d="M688.83 511.82a12.5 12.5 0 0 0-17.68 0l-22.93 22.93-22.93-22.93a12.5 12.5 0 0 0-17.68 17.68l22.93 22.93-22.93 22.93A12.5 12.5 0 0 0 625.29 593l22.93-22.93L671.15 593a12.5 12.5 0 0 0 17.68-17.68l-22.93-22.89 22.93-22.93a12.5 12.5 0 0 0 0-17.68z"/>
</svg>
