<svg xmlns="http://www.w3.org/2000/svg" viewBox="0 0 1000 1000">
    <title>
        Safety
    </title>
    <path d="M755.8 463.86a83.87 83.87 0 0 0-58.59-24.62v-101.8c0-96.74-78.7-175.44-175.44-175.44s-175.43 78.7-175.43 175.44v101.79a84.46 84.46 0 0 0-83.56 84.56v201.47a84.48 84.48 0 0 0 84.43 84.12h349.27a85.23 85.23 0 0 0 84.17-84.12V523.55a83.93 83.93 0 0 0-24.85-59.69zM521.78 212a125.58 125.58 0 0 1 125.43 125.44v101.77H396.34V337.44A125.58 125.58 0 0 1 521.78 212zm208.86 512.75A35 35 0 0 1 696 759.38H347.26A34.48 34.48 0 0 1 312.78 725V523.75a34.48 34.48 0 0 1 34.39-34.53H366a25 25 0 0 0 10.75 0h319.42a34.48 34.48 0 0 1 34.47 34.38z"/>
</svg>
