<svg xmlns="http://www.w3.org/2000/svg" viewBox="0 0 1000 1000">
    <title>
        Sales
    </title>
    <path d="M797.78 337.53l-76.67-175.28-.11-.25a47.76 47.76 0 0 0-32.39-26.75l-103.23-25.72a47.93 47.93 0 0 0-40.75 8.23l-.24.18-150.52 119.17-.24.19a47.78 47.78 0 0 0-16.32 26.06L262.72 723a47.38 47.38 0 0 0 33.89 57.6l.88.22 330.41 82.35a47.35 47.35 0 0 0 57.63-34l.18-.72L800.2 369.21a44.94 44.94 0 0 0-2.42-31.68zm-160 476.56l-326-81.27 8.31-33.31 326 81.27zm14.35-57.57l-326-81.27 99.64-399.63L574 158.23l101.84 25.39L751.71 357z"/>
    <path d="M620.6 188.48a57.69 57.69 0 1 0 42 69.93 57.76 57.76 0 0 0-42.01-69.93zm17.76 63.89a32.7 32.7 0 1 1-23.81-39.63 32.73 32.73 0 0 1 23.81 39.62zM492.63 462.83a24.76 24.76 0 0 0 29.21-19.91c2.6-13.76-6-27.59-19.73-30.2s-27.78 7-30.38 20.71 7.14 26.8 20.9 29.4zm109.67 22.8a26 26 0 1 0 9.7-51.09c-13.76-2.6-26.8 7.14-29.4 20.9s6 27.59 19.73 30.2zm-74.53 114.13c36.35 6.88 76.3.2 109.2-23.09 5.84-4 7.33-11.84 3.16-16.7-4-5.84-10.86-7.15-16.7-3.16-55.91 37.25-131.56 22.92-169-32a12.68 12.68 0 0 0-17.69-3.35c-5.66 3-7.15 10.86-3.16 16.7a145.24 145.24 0 0 0 94.19 61.6z"/>
</svg>
