<svg xmlns="http://www.w3.org/2000/svg" viewBox="0 0 1000 1000">
    <title>
        Screwdriver
    </title>
    <path d="M294.21 825.4a25 25 0 0 1-9-1.69c-12.43-4.82-54.23-21.81-70.26-37.83s-33-57.82-37.83-70.25a25 25 0 0 1 5.71-26.8L489.7 384.65a191.6 191.6 0 0 1-7-51.63c0-105.92 86.17-192.09 192.09-192.09a192 192 0 0 1 58.11 9 25 25 0 0 1 10.1 41.49L665.41 269l15.68 58.51 58.51 15.68L816.74 266a25 25 0 0 1 41.57 10.3 192.06 192.06 0 0 1 8.52 56.7c0 105.92-86.17 192.09-192.09 192.09a191.2 191.2 0 0 1-58.18-9l-304.75 302a25 25 0 0 1-17.6 7.31zM229.9 712.53c7.35 16.8 15.94 33.58 20.36 38s21.3 13.07 38.15 20.43l304.23-301.53a25 25 0 0 1 27.26-5.3 141.2 141.2 0 0 0 54.84 11c77.12 0 140.09-61.76 142-138.42l-52 52a25 25 0 0 1-24.15 6.47l-86.39-23.13a25 25 0 0 1-17.68-17.68L613.37 268a25 25 0 0 1 6.47-24.15l52.89-52.89C595.31 192 532.66 255.34 532.66 333a141.57 141.57 0 0 0 9 49.79 25 25 0 0 1-5.82 26.52z"/>
</svg>
