<svg xmlns="http://www.w3.org/2000/svg" viewBox="0 0 1000 1000">
    <title>
        Star
    </title>
    <path d="M708.1 823.3c-10.9 0-21.4-3.6-30.2-10L506.5 688.8c-3.9-2.8-9.2-2.8-13.1 0L322.1 813.4c-22.9 16.7-55 11.6-71.7-11.4-9.7-13.3-12.4-30.4-7.3-46l65.5-201.5c1.5-4.6-.1-9.6-4-12.5L133.1 417.5c-22.9-16.7-28-48.7-11.3-71.7 9.7-13.3 25.1-21.1 41.5-21.1h211.9c4.8 0 9.1-3.1 10.6-7.7l65.5-201.5c6.7-21.3 26.5-35.7 48.8-35.4 22.3-.2 42.1 14.2 48.8 35.5L614.2 317c1.5 4.6 5.8 7.7 10.6 7.7h211.9c28.3 0 51.3 23 51.3 51.3 0 16.4-7.9 31.8-21.1 41.5L695.5 542.1c-3.9 2.8-5.5 7.9-4 12.5L756.9 756c7.1 21.1-.4 44.4-18.6 57.3-8.8 6.5-19.4 10-30.2 10zM500 636.7c12.9 0 25.5 4.1 35.9 11.7l171.4 124.5c.6.4.8.5 1.5 0s.7-.8.5-1.5L643.9 570c-8.2-25.2.7-52.8 22.2-68.4L837.5 377c.6-.4.8-.5.5-1.5s-.5-.9-1.2-.9h-212c-26.5 0-50-17-58.2-42.2L501.2 131c-.2-.7-.3-.9-1.2-.9s-1 .2-1.2.9l-65.5 201.5c-8.1 25.2-31.6 42.3-58.1 42.2H163.3c-.7 0-.9 0-1.2.9s-.1 1 .5 1.5L334 501.6c21.5 15.5 30.5 43.2 22.2 68.4l-65.5 201.5c-.2.7-.3.9.5 1.5s1 .4 1.5 0l171.4-124.5c10.4-7.7 23-11.8 35.9-11.8z"/>
</svg>
