<svg xmlns="http://www.w3.org/2000/svg" viewBox="0 0 1000 1000">
    <title>
        Transport
    </title>
    <path d="M314.34 572.76a92.17 92.17 0 1 0 92.17 92.17 92.27 92.27 0 0 0-92.17-92.17zm0 134.34a42.17 42.17 0 1 1 42.17-42.17 42.22 42.22 0 0 1-42.17 42.17zM724.31 572.76a92.17 92.17 0 1 0 92.17 92.17 92.27 92.27 0 0 0-92.17-92.17zm0 134.34a42.17 42.17 0 1 1 42.17-42.17 42.22 42.22 0 0 1-42.17 42.17z"/>
    <path d="M909.09 491.51L803.63 320.65a57.55 57.55 0 0 0-49-27.64h-99.15v-31.73A59 59 0 0 0 597 202.82H138a59 59 0 0 0-58.46 58.46V600A59 59 0 0 0 138 658.65h23.13a25 25 0 0 0 0-50h-22.9a8.8 8.8 0 0 1-8.69-8.7V261.51a8.81 8.81 0 0 1 8.69-8.69h458.56a8.81 8.81 0 0 1 8.69 8.69v219.38a25 25 0 1 0 50 0V343h99.16a7.28 7.28 0 0 1 6.2 3.52l105.43 170.81a29.86 29.86 0 0 1 4.19 15.1v72.36a3.87 3.87 0 0 1-3.82 3.88H860a25 25 0 0 0 0 50h6.81a53.93 53.93 0 0 0 53.62-54v-72.32a80 80 0 0 0-11.34-40.84z"/>
</svg>
