<svg xmlns="http://www.w3.org/2000/svg" viewBox="0 0 1000 1000">
    <title>
        Upturn
    </title>
    <path d="M663.35 201.33c-.28-.28-7.4-7.24-17.68-7.24s-17.4 7-17.68 7.24L466.15 363.18a25 25 0 1 0 35.36 35.36l119.17-119.17v434.79a25 25 0 0 0 50 0V279.37l119.17 119.17a25 25 0 0 0 35.35-35.36L663.35 201.33zM319.16 736.92c.28.28 7.4 7.24 17.68 7.24s17.4-7 17.68-7.24l161.85-161.85A25 25 0 1 0 481 539.71L361.84 658.89V224.1a25 25 0 0 0-50 0v434.79L192.67 539.71a25 25 0 0 0-35.35 35.36l161.84 161.85z"/>
</svg>
