<svg xmlns="http://www.w3.org/2000/svg" viewBox="0 0 1000 1000">
    <title>
        Wireless
    </title>
    <circle cx="327.4" cy="590.6" r="46.6"/>
    <path d="M490.7 640.2c-13.8 0-25-11.2-25-25 0-89.8-73.1-162.9-162.9-162.9-13.8 0-25-11.2-25-25s11.2-25 25-25c117.4 0 212.9 95.5 212.9 212.9 0 13.9-11.2 25-25 25z"/>
    <path d="M624 640.2c-13.8 0-25-11.2-25-25 0-163.6-132.7-296.3-296.3-296.3-13.8 0-25-11.2-25-25s11.2-25 25-25c191.1-.2 346.1 154.6 346.3 345.7v.6c0 13.9-11.1 25-25 25z"/>
    <path d="M763.7 640.2c-13.8 0-25-11.2-25-25 .2-240.6-194.6-435.8-435.1-436h-.9c-13.8 0-25-11.2-25-25s11.2-25 25-25c268.2-.2 485.8 217 486 485.1v.9c0 13.9-11.2 25-25 25z"/>
</svg>
