<?xml version="1.0" standalone="no"?>
<!DOCTYPE svg PUBLIC "-//W3C//DTD SVG 1.1//EN" "http://www.w3.org/Graphics/SVG/1.1/DTD/svg11.dtd" >
<svg xmlns="http://www.w3.org/2000/svg">
<metadata>Generated by IcoMoon</metadata>
<defs>
<font id="icomoon" horiz-adv-x="1024">
<font-face units-per-em="1024" ascent="960" descent="-64" />
<missing-glyph horiz-adv-x="1024" />
<glyph unicode="&#x20;" horiz-adv-x="512" d="" />
<glyph unicode="&#xe900;" glyph-name="accept" d="M485.171 264.090c-12.595 0.102-24.678 5.12-33.587 14.131-0.41 0.41-0.922 0.922-1.331 1.434l-127.283 147.968c-9.216 10.752-7.987 26.931 2.765 36.147s26.931 7.987 36.147-2.765l120.115-139.674 230.707 492.954c6.144 12.698 21.402 18.125 34.202 11.981 12.595-6.042 17.92-20.992 12.186-33.69l-237.261-506.675c-0.307-0.717-0.717-1.331-1.024-2.048-6.349-10.752-17.408-18.022-29.798-19.456-1.946-0.205-3.891-0.307-5.837-0.307z" />
<glyph unicode="&#xe901;" glyph-name="add" d="M797.696 499.384h-260.096v260.096c0 14.138-11.462 25.6-25.6 25.6s-25.6-11.462-25.6-25.6v0-260.096h-260.096c-14.138 0-25.6-11.462-25.6-25.6s11.462-25.6 25.6-25.6v0h260.096v-260.096c0-14.138 11.462-25.6 25.6-25.6s25.6 11.462 25.6 25.6v0 260.096h260.096c14.138 0 25.6 11.462 25.6 25.6s-11.462 25.6-25.6 25.6v0z" />
<glyph unicode="&#xe902;" glyph-name="allocation" d="M512 450.56c-74.445 0-135.066 60.621-135.066 135.066s60.621 135.066 135.066 135.066 135.066-60.621 135.066-135.066-60.621-135.066-135.066-135.066zM512 695.091c-60.416 0-109.466-49.050-109.466-109.466s49.050-109.466 109.466-109.466 109.466 49.050 109.466 109.466v0c0 60.416-49.050 109.363-109.466 109.466zM512 157.901c-6.656 0-13.107 2.662-17.92 7.27-2.355 2.355-58.573 57.549-115.507 136.192-33.69 46.49-60.621 91.546-79.974 133.939-24.883 54.272-37.478 104.653-37.478 149.606 0 138.547 112.333 250.982 250.982 250.982s250.982-112.333 250.982-250.982c0-44.954-12.595-95.334-37.581-149.709-19.354-42.291-46.285-87.347-79.974-133.939-56.934-78.643-113.152-133.837-115.507-136.192-4.915-4.608-11.366-7.168-18.022-7.168zM512 784.691c-110.080 0-199.68-89.6-199.68-199.68 0-68.403 37.069-155.853 107.315-252.928 28.467-39.117 59.29-76.39 92.365-111.718 33.075 35.328 63.898 72.602 92.365 111.718 70.246 97.075 107.315 184.525 107.315 252.928 0 110.080-89.6 199.68-199.68 199.68v0z" />
<glyph unicode="&#xe903;" glyph-name="archive" d="M845.517 717.107h-667.034c-14.138 0-25.6-11.462-25.6-25.6v0-125.891c0-14.138 11.462-25.6 25.6-25.6v0h38.113v-316.58c0-14.138 11.462-25.6 25.6-25.6v0h539.648c14.138 0 25.6 11.462 25.6 25.6v0 316.58h38.072c14.138 0 25.6 11.462 25.6 25.6v0 125.891c0 14.138-11.462 25.6-25.6 25.6v0zM756.204 249.037h-488.448v290.98h488.448zM819.917 591.217h-615.834v74.691h615.834zM414.372 441.856h195.256c7.069 0 12.8 5.731 12.8 12.8s-5.731 12.8-12.8 12.8v0h-195.256c-7.069 0-12.8-5.731-12.8-12.8s5.731-12.8 12.8-12.8v0z" />
<glyph unicode="&#xe904;" glyph-name="attachement" d="M425.882 236.851c-81.306 0-147.149 65.946-147.149 147.251 0 33.894 11.776 66.765 33.178 93.082l280.474 343.45c37.581 46.49 105.779 53.76 152.269 16.179s53.76-105.779 16.179-152.269c-0.205-0.307-0.512-0.614-0.717-0.922l-279.347-342.016c-23.552-29.798-66.867-34.816-96.563-11.162-29.798 23.552-34.816 66.867-11.162 96.563 0.41 0.512 0.819 1.024 1.331 1.536l198.349 242.893c8.909 10.957 25.088 12.595 36.045 3.584s12.595-25.088 3.584-36.045l-198.451-242.688c-6.349-7.373-5.427-18.432 1.946-24.781s18.432-5.427 24.781 1.946c0.205 0.205 0.307 0.41 0.512 0.614l279.347 342.016c19.968 24.371 16.282 60.314-8.090 80.282s-60.314 16.282-80.282-8.090l-280.474-343.552c-33.587-41.062-27.443-101.581 13.619-135.168s101.581-27.443 135.168 13.619v0l202.547 248.013c8.909 10.957 25.088 12.595 36.045 3.584s12.595-25.088 3.584-36.045l-202.547-247.91c-28.058-34.202-69.939-54.067-114.176-53.965z" />
<glyph unicode="&#xe905;" glyph-name="audio" d="M579.994 755.405c-8.806 4.301-19.251 3.174-26.931-2.867l-157.082-122.47h-159.334c-14.131 0-25.6-11.469-25.6-25.6v0-263.987c0-14.131 11.469-25.6 25.6-25.6h159.334l157.082-122.47c11.162-8.704 27.238-6.656 35.942 4.403 3.482 4.506 5.427 10.035 5.427 15.77v519.782c0 9.83-5.632 18.739-14.438 23.040zM262.246 578.867h116.941v-212.787h-116.941v212.787zM543.232 265.114l-112.845 87.962v238.899l112.845 87.962v-414.822zM680.653 595.456c-10.035 10.035-26.214 10.035-36.25 0s-10.035-26.214 0-36.25c47.821-47.923 47.821-125.44 0-173.363-10.035-10.035-10.035-26.214 0-36.25s26.214-10.035 36.25 0v0c67.686 67.789 67.686 178.074 0 245.862zM754.995 669.798c-9.626 10.342-25.805 10.957-36.147 1.331s-10.957-25.805-1.331-36.147c0.41-0.512 0.922-0.922 1.331-1.331 88.986-88.986 88.986-233.165 0-322.048-10.035-10.035-10.035-26.214 0-36.25s26.214-10.035 36.25 0v0c108.851 108.851 108.851 285.491-0.102 394.445v0z" />
<glyph unicode="&#xe906;" glyph-name="cart" d="M663.552 349.594v0c-40.386-0.065-74.616-26.351-86.58-62.74l-0.184-0.645h-105.82c-12.132 37.047-46.392 63.334-86.792 63.334-0.004 0-0.009 0-0.013 0h0.001c-0.002 0-0.004 0-0.006 0-50.333 0-91.136-40.803-91.136-91.136s40.803-91.136 91.136-91.136c40.457 0 74.756 26.361 86.659 62.844l0.182 0.644h105.759c12.101-37.1 46.387-63.437 86.825-63.437 50.333 0 91.136 40.803 91.136 91.136s-40.803 91.136-91.136 91.136c-0.011 0-0.021 0-0.032 0h0.002zM409.395 233.236c-6.454-6.455-15.372-10.448-25.221-10.448-19.698 0-35.666 15.968-35.666 35.666s15.968 35.666 35.666 35.666c19.697 0 35.664-15.966 35.666-35.663v0c0-0.030 0-0.065 0-0.101 0-9.817-3.993-18.702-10.443-25.119l-0.002-0.002zM688.783 233.236c-6.454-6.455-15.372-10.448-25.221-10.448-19.698 0-35.666 15.968-35.666 35.666s15.968 35.666 35.666 35.666c19.697 0 35.664-15.966 35.666-35.663v0c0-0.024 0-0.052 0-0.080 0-9.817-3.993-18.702-10.443-25.119l-0.002-0.002zM814.684 659.415c-5.123 6.299-12.873 10.291-21.555 10.291-0.004 0-0.007 0-0.011 0h-469.934c-2.734 17.254-5.12 32.164-6.851 43.121-3.594 22.528-12.739 42.127-26.46 56.596-15.821 16.701-36.465 25.518-59.679 25.518h-46.080c-15.309 0-27.72-12.411-27.72-27.72s12.411-27.72 27.72-27.72h46.080c23.9 0 30.065-27.095 31.386-35.4 2.458-15.411 6.144-38.636 10.353-65.229q0.143-1.29 0.399-2.54c13.896-87.654 33.229-209.859 33.485-211.466 2.168-13.333 13.599-23.388 27.379-23.388 0.001 0 0.002 0 0.003 0h296.96c18.012-0.082 45.056 1.946 71.946 12.124 27.31 10.342 47.841 27.003 59.392 48.189 31.181 57.231 47.77 123.249 58.747 174.377 0.391 1.744 0.614 3.748 0.614 5.804 0 6.632-2.329 12.721-6.215 17.492l0.040-0.051zM712.796 488.325c-11.848-21.74-49.377-31.406-81.623-31.406h-274.289c-5.366 33.874-15.657 98.939-24.914 157.338h426.383c-9.953-40.653-23.972-86.323-45.558-125.932z" />
<glyph unicode="&#xe907;" glyph-name="chevron-down" d="M512 295.117c-5.837 0-11.571 2.048-16.077 5.734l-314.368 254.464c-11.059 8.806-12.902 24.883-4.096 35.942s24.883 12.902 35.942 4.096c0.102-0.102 0.205-0.205 0.307-0.307l298.291-241.357 298.189 241.459c10.957 9.011 27.034 7.373 36.045-3.482 9.011-10.957 7.373-27.034-3.482-36.045-0.102-0.102-0.205-0.205-0.307-0.307l-314.368-254.464c-4.608-3.686-10.24-5.734-16.077-5.734z" />
<glyph unicode="&#xe908;" glyph-name="chevron-left" d="M639.283 108.032c-7.68 0-15.053 3.482-19.866 9.523l-254.464 314.368c-7.578 9.421-7.578 22.835 0 32.256l254.464 314.368c8.806 11.059 24.883 12.902 35.942 4.096s12.902-24.883 4.096-35.942c-0.102-0.102-0.205-0.205-0.307-0.307l-241.459-298.394 241.459-298.189c8.909-10.957 7.27-27.136-3.686-36.045-4.608-3.686-10.342-5.734-16.179-5.734z" />
<glyph unicode="&#xe909;" glyph-name="chevron-right" d="M384.717 108.032c-14.131 0-25.6 11.469-25.6 25.6 0 5.837 2.048 11.571 5.734 16.077l241.459 298.291-241.459 298.189c-8.806 11.059-6.963 27.136 4.096 35.942 10.957 8.704 26.829 7.066 35.738-3.789l254.464-314.368c7.578-9.421 7.578-22.835 0-32.256l-254.464-314.368c-4.915-5.837-12.186-9.318-19.968-9.318z" />
<glyph unicode="&#xe90a;" glyph-name="chevron-up" d="M826.061 296.55c-5.837 0-11.571 2.048-16.077 5.734l-298.189 241.459-298.189-241.459c-11.059-8.806-27.136-6.963-35.942 4.096-8.704 10.957-7.066 26.829 3.789 35.738l314.163 254.464c9.421 7.578 22.835 7.578 32.256 0l314.368-254.464c10.957-8.909 12.698-24.986 3.789-36.045-4.915-6.042-12.186-9.523-19.968-9.523v0z" />
<glyph unicode="&#xe90b;" glyph-name="close" d="M732.16 289.884l-183.91 183.91 183.91 183.9c4.633 4.633 7.499 11.034 7.499 18.104 0 14.14-11.463 25.603-25.603 25.603-7.070 0-13.471-2.866-18.104-7.499l-183.951-183.91-183.91 183.9c-4.637 4.643-11.045 7.515-18.125 7.515-14.146 0-25.614-11.468-25.614-25.614 0-7.067 2.862-13.465 7.49-18.099v0l183.91-183.91-183.91-183.9c-4.633-4.633-7.499-11.034-7.499-18.104 0-14.14 11.463-25.603 25.603-25.603 7.070 0 13.471 2.866 18.104 7.499l183.951 183.91 183.91-183.91c4.637-4.642 11.046-7.514 18.125-7.514 14.148 0 25.618 11.47 25.618 25.618 0 7.069-2.863 13.469-7.493 18.105v0z" />
<glyph unicode="&#xe90c;" glyph-name="cloud" d="M753.971 579.482c-7.066 0-14.029-0.512-21.094-1.536-15.872 36.659-41.062 68.608-73.011 92.57-92.774 69.325-222.618 57.958-301.978-26.317l-0.41 0.102c-2.458 0.512-11.059 2.867-26.317 2.867-48.128 0.102-91.443-29.184-109.466-73.83-65.024-18.842-109.875-78.438-109.875-146.125 0-83.968 68.301-152.269 152.269-152.269h489.882c83.968 0 152.269 68.301 152.269 152.269s-68.301 152.269-152.269 152.269zM825.446 355.738v0c-18.944-19.046-44.646-29.696-71.475-29.594h-489.882c-55.808 0-101.069 45.261-101.069 101.069 0 48.845 34.918 90.726 83.046 99.43 9.933 1.741 17.818 9.216 20.275 18.944 7.475 29.696 34.202 50.483 64.819 50.483 45.875 0 66.662-39.117 66.765-66.867 0-14.131 11.469-25.6 25.6-25.6s25.6 11.469 25.6 25.6c0 35.123-15.667 68.403-42.701 90.829 62.566 55.603 155.648 59.597 222.822 9.523 29.798-22.323 51.917-53.35 63.078-88.883 4.198-13.414 18.534-20.992 31.949-16.896 53.35 16.486 109.978-13.414 126.362-66.765 10.957-35.738 1.331-74.752-25.19-101.274z" />
<glyph unicode="&#xe90d;" glyph-name="company" d="M830.331 594.883h-280.351v89.897c-0.023 24.479-19.861 44.316-44.337 44.339h-301.632c-24.479-0.023-44.316-19.861-44.339-44.337v-462.85c0.029-24.476 19.863-44.31 44.336-44.339h626.322c24.476 0.029 44.31 19.863 44.339 44.336v328.615c-0.029 24.476-19.863 44.31-44.336 44.339h-0.003zM421.437 227.789h-131.379v135.342h131.379zM494.141 227.789h-47.104v145.633c0 8.483-6.877 15.36-15.36 15.36v0h-151.9c-8.483 0-15.36-6.877-15.36-15.36v0-145.633h-54.569v451.154h289.956v-451.154zM746.138 227.789h-131.379v135.342h131.379zM824.494 227.789h-52.756v145.633c0 8.483-6.877 15.36-15.36 15.36v0h-151.91c-8.483 0-15.36-6.877-15.36-15.36v0-145.633h-39.127v316.918h274.514zM604.467 430.172h151.951c8.483 0 15.36 6.877 15.36 15.36v0 50.975c0 8.483-6.877 15.36-15.36 15.36v0h-151.951c-8.483 0-15.36-6.877-15.36-15.36v0-51.026c0.029-8.461 6.895-15.309 15.36-15.309 0 0 0 0 0 0v0zM614.707 486.216h131.379v-30.444h-131.328zM431.729 511.826h-151.951c-8.483 0-15.36-6.877-15.36-15.36v0-51.026c0-8.483 6.877-15.36 15.36-15.36v0h151.951c8.483 0 15.36 6.877 15.36 15.36v0 51.067c-0.023 8.465-6.891 15.319-15.36 15.319 0 0 0 0 0 0v0zM421.489 455.782h-131.43v30.444h131.379zM431.729 634.911h-151.951c-8.483 0-15.36-6.877-15.36-15.36v0-51.026c0-8.483 6.877-15.36 15.36-15.36v0h151.951c8.483 0 15.36 6.877 15.36 15.36v0 51.077c-0.029 8.461-6.895 15.309-15.36 15.309 0 0 0 0 0 0v0zM421.489 578.867h-131.43v30.444h131.379z" />
<glyph unicode="&#xe90e;" glyph-name="contact" d="M575.693 83.456c-9.011-0.102-18.022 0.512-26.931 1.843-51.507 8.192-78.234 53.453-106.598 101.478l-1.638 2.765c-5.53 9.318-54.682 94.413-93.491 223.232-23.347 77.21-37.478 154.931-41.165 224.768l-0.102 1.126c-2.662 51.507-0.614 115.507 40.038 152.781 36.659 33.382 118.682 64.717 127.898 68.198 9.933 3.686 21.197 0.922 28.16-7.066 25.498-28.877 41.984-63.488 51.405-87.45 10.957-27.955 18.33-56.832 20.275-79.258 0.922-10.957-5.222-21.299-15.36-25.702l-91.546-39.424c0.41-28.877 3.789-93.901 24.781-165.069 21.197-71.885 60.314-137.421 78.438-165.581l81.203 21.504c11.366 2.97 23.347-2.15 28.979-12.493 10.752-19.763 20.685-47.923 26.931-77.312 5.427-25.088 10.752-63.078 5.53-101.274-1.434-10.547-9.216-19.046-19.558-21.504-7.885-1.843-68.813-15.565-117.248-15.565zM484.659 215.552l1.638-2.765c26.522-44.954 44.134-72.704 70.554-76.902 26.726-4.301 76.186 3.277 106.701 9.216 1.536 40.038-8.602 82.944-19.968 111.411l-78.131-20.685c-10.24-2.765-21.197 1.229-27.341 9.933-2.662 3.686-65.024 91.75-95.642 195.379-30.72 104.141-26.931 193.843-26.726 197.632 0.41 9.83 6.451 18.432 15.462 22.323l88.781 38.298c-6.144 30.106-21.402 72.397-45.363 105.472-28.672-11.878-74.035-32.973-94.003-51.302-19.149-17.613-26.624-53.35-23.552-112.435l0.102-1.126c3.379-65.741 16.896-139.264 39.014-212.582 37.786-125.133 86.528-208.486 88.576-211.968l-0.102 0.102z" />
<glyph unicode="&#xe90f;" glyph-name="control" d="M782.653 263.619c-0.303 27.193-22.266 49.156-49.43 49.459h-196.166v178.657c72.632 12.216 128.154 75.54 128.154 151.552 0 84.767-68.966 153.733-153.733 153.733s-153.723-68.925-153.723-153.692c0-76.032 55.491-139.346 128.102-151.552v-178.698h-195.041c-27.193-0.303-49.156-22.266-49.459-49.43v-34.149c0.297-27.197 22.263-49.166 49.43-49.469h443.134c26.397 1.192 47.501 22.278 48.718 48.558l0.004 0.113v34.621zM408.955 643.328c0 56.627 45.906 102.533 102.533 102.533s102.533-45.906 102.533-102.533c0-56.627-45.906-102.533-102.533-102.533v0c-56.602 0.064-102.469 45.931-102.533 102.527v0.006zM731.453 231.229h-438.907v30.648h438.907zM330.967 346.132h83.968c7.069 0 12.8 5.731 12.8 12.8s-5.731 12.8-12.8 12.8v0h-83.968c-7.069 0-12.8-5.731-12.8-12.8s5.731-12.8 12.8-12.8v0z" />
<glyph unicode="&#xe910;" glyph-name="delete" d="M684.954 686.592h-345.907c-12.186-0.102-23.757-5.222-31.949-14.234-7.885-8.499-12.186-19.558-12.186-31.13 0-0.512 0-1.024 0-1.638l27.648-445.542c0.512-24.064 20.173-43.418 44.237-43.418h290.304c24.064 0.102 43.725 19.354 44.237 43.418l27.75 445.542c0 0.512 0 1.024 0 1.638 0 11.571-4.403 22.733-12.186 31.13-8.294 9.011-19.763 14.131-31.949 14.234zM650.547 201.83h-277.094l-27.034 433.562h331.059l-26.931-433.562zM313.037 714.547h397.926c14.131 0 25.6 11.469 25.6 25.6s-11.469 25.6-25.6 25.6h-112.64v36.25c0 11.571-7.27 20.275-16.794 20.275h-139.059c-9.626 0-16.794-8.704-16.794-20.275v-36.25h-112.64c-14.131 0-25.6-11.469-25.6-25.6s11.469-25.6 25.6-25.6v0zM451.277 796.57h121.549v-30.822h-121.651l0.102 30.822z" />
<glyph unicode="&#xe911;" glyph-name="dialog" d="M678.605 179.61c-19.968 0-90.522 3.584-140.8 51.405-28.774 27.443-45.568 63.795-50.176 108.442h-203.162c-45.978 0-83.149 37.274-83.149 83.149v234.189c0 45.978 37.274 83.149 83.149 83.149h454.963c45.978 0 83.149-37.274 83.149-83.149v-234.189c-0.102-45.875-37.274-83.149-83.149-83.149h-54.374c-0.922-11.366-1.843-26.112-1.741-41.677 0.512-55.091 12.595-70.144 16.282-73.421 10.547-9.421 11.469-25.6 2.048-36.147-4.608-5.12-10.957-8.192-17.818-8.499-0.41 0-2.253-0.102-5.222-0.102zM284.467 688.742c-17.613 0-31.949-14.336-31.949-31.949v-234.189c0-17.613 14.336-31.949 31.949-31.949h227.533c14.131 0 25.6-11.469 25.6-25.6 0-41.882 11.981-74.547 35.533-96.973 19.661-18.637 44.749-27.955 65.843-32.666-4.301 17.306-6.554 38.093-6.656 62.566-0.102 23.654 1.434 47.309 4.608 70.758 1.843 12.595 12.595 21.914 25.293 21.914h77.312c17.613 0 31.949 14.336 31.949 31.949v234.189c0 17.613-14.336 31.949-31.949 31.949h-455.066z" />
<glyph unicode="&#xe912;" glyph-name="digital-service" d="M828.314 728.064h-632.627c-17.203 0-31.13-13.926-31.13-31.13v-419.942c0-17.203 13.926-31.13 31.13-31.13h253.030v-59.187h-154.726c-14.131 0-25.6-11.469-25.6-25.6s11.469-25.6 25.6-25.6h436.019c14.131 0 25.6 11.469 25.6 25.6s-11.469 25.6-25.6 25.6h-154.726v59.187h253.030c17.203 0 31.13 13.926 31.13 31.13v419.942c-0.102 17.203-13.926 31.13-31.13 31.13zM549.683 186.778h-75.366v59.187h75.366v-59.187zM808.243 297.062h-592.486v379.802h592.384v-379.802zM476.979 546.714c0-14.534-11.782-26.317-26.317-26.317s-26.317 11.782-26.317 26.317c0 14.534 11.782 26.317 26.317 26.317s26.317-11.782 26.317-26.317zM592.384 545.178c0-14.534-11.782-26.317-26.317-26.317s-26.317 11.782-26.317 26.317c0 14.534 11.782 26.317 26.317 26.317s26.317-11.782 26.317-26.317zM512 389.53c39.834-0.102 78.029 15.77 106.086 43.827 5.018 5.018 5.018 13.107 0 18.125s-13.107 5.018-18.125 0c-48.64-48.538-127.386-48.538-176.026 0-5.018 5.018-13.107 5.018-18.125 0s-5.018-13.107 0-18.125c28.16-28.058 66.355-43.827 106.189-43.827z" />
<glyph unicode="&#xe913;" glyph-name="digital" d="M828.314 728.064h-632.627c-17.203 0-31.13-13.926-31.13-31.13v-419.942c0-17.203 13.926-31.13 31.13-31.13h253.030v-59.187h-154.726c-14.131 0-25.6-11.469-25.6-25.6s11.469-25.6 25.6-25.6h436.019c14.131 0 25.6 11.469 25.6 25.6s-11.469 25.6-25.6 25.6h-154.726v59.187h253.030c17.203 0 31.13 13.926 31.13 31.13v419.942c-0.102 17.203-13.926 31.13-31.13 31.13zM549.683 186.778h-75.366v59.187h75.366v-59.187zM808.243 297.062h-592.486v379.802h592.384v-379.802z" />
<glyph unicode="&#xe914;" glyph-name="discount" d="M797.501 224.051v0.256l-97.833 462.285c-2.182 10.738-7.684 19.938-15.369 26.722l-0.052 0.045-146.483 124.355c-8.386 7.036-19.296 11.311-31.205 11.311-3.347 0-6.614-0.338-9.771-0.98l0.313 0.053-103.956-22.149c-14.805-3.099-26.892-12.679-33.349-25.569l-0.126-0.277-82.995-172.339c-3.021-6.147-4.787-13.379-4.787-21.024 0-3.432 0.356-6.781 1.033-10.012l-0.055 0.316 97.823-462.387v-0.184c4.791-21.928 24.043-38.103 47.072-38.103 0.011 0 0.022 0 0.033 0h-0.002c3.263 0.006 6.448 0.326 9.53 0.932l-0.314-0.051h0.256l332.984 70.349c21.961 4.798 38.161 24.078 38.161 47.143 0 3.294-0.33 6.511-0.96 9.62l0.052-0.309zM323.215 606.413l81.725 169.708 100.936 21.504 143.8-122.061 85.709-405.207-326.103-70.892zM420.147 148.101l-5.56 26.307 326.093 70.892 5.96-28.18zM451.748 315.484c1.754-0.964 3.844-1.53 6.067-1.53 4.849 0 9.068 2.698 11.236 6.675l0.033 0.067 141.312 262.646c1.103 1.852 1.755 4.084 1.755 6.469 0 7.069-5.731 12.8-12.8 12.8-5.010 0-9.347-2.878-11.449-7.071l-0.034-0.074-141.312-262.646c-0.964-1.756-1.531-3.847-1.531-6.071 0-4.843 2.69-9.058 6.656-11.232l0.067-0.033zM435.292 485.407c24.46 0 44.288 19.828 44.288 44.288s-19.828 44.288-44.288 44.288c-24.46 0-44.288-19.828-44.288-44.288v0c0.029-24.448 19.84-44.259 44.285-44.288h0.003zM435.292 548.383c10.321 0 18.688-8.367 18.688-18.688s-8.367-18.688-18.688-18.688c-10.321 0-18.688 8.367-18.688 18.688v0c0.029 10.303 8.382 18.646 18.687 18.657h0.001zM573.44 376.934c0-24.46 19.828-44.288 44.288-44.288s44.288 19.828 44.288 44.288c0 24.46-19.828 44.288-44.288 44.288v0c-24.448-0.029-44.259-19.84-44.288-44.285v-0.003zM617.728 395.622c10.321 0 18.688-8.367 18.688-18.688s-8.367-18.688-18.688-18.688c-10.321 0-18.688 8.367-18.688 18.688v0c0.012 10.302 8.348 18.653 18.644 18.688h0.003z" />
<glyph unicode="&#xe915;" glyph-name="edit" d="M679.117 201.114c-7.68 0-14.848 3.379-19.763 9.318-0.205 0.205-21.197 25.702-42.394 52.429-45.466 57.344-47.718 64.41-49.562 70.144l-147.763 462.336c-8.806 27.648 0.614 53.658 22.016 60.416l66.15 21.094c21.402 6.861 44.134-8.909 52.941-36.454l147.763-462.438c1.843-5.632 4.096-12.8 0.307-85.811-1.741-34.099-4.096-66.867-4.096-67.277-1.024-13.312-12.186-23.654-25.6-23.757v0zM615.834 349.901c3.891-7.066 20.992-29.491 41.779-55.808 1.741 33.485 2.56 61.645 1.741 69.632l-147.354 460.902-43.52-13.926 147.354-460.8zM659.661 362.496v0zM553.472 201.421h-260.506c-14.131 0-25.6 11.469-25.6 25.6s11.469 25.6 25.6 25.6h260.608c14.131 0 25.6-11.469 25.6-25.6s-11.469-25.6-25.702-25.6z" />
<glyph unicode="&#xe916;" glyph-name="environmentally-friendly" d="M876.872 645.038c-4.367 3.573-10.006 5.738-16.152 5.738-4.366 0-8.477-1.093-12.074-3.020l0.137 0.067c-89.743-47.319-162.673-47.616-233.196-47.903-54.487-0.225-110.838-0.451-169.503-23.726-91.474-36.352-127.816-96.799-142.203-141.107-6.587-19.696-10.388-42.374-10.388-65.939 0-3.568 0.087-7.115 0.259-10.641l-0.019 0.497c-22.682-12.411-74.988-34.57-126.054-10.076-3.238 1.59-7.048 2.519-11.075 2.519-14.139 0-25.6-11.462-25.6-25.6 0-10.112 5.863-18.855 14.374-23.014l0.151-0.067c20.69-10.177 45.035-16.129 70.771-16.129 0.212 0 0.423 0 0.635 0.001h-0.033c45.189 0 83.681 17.521 103.7 28.744 43.491-34.463 99.156-55.287 159.685-55.287 23.318 0 45.915 3.091 67.403 8.884l-1.807-0.415c58.624 12.81 113.050 39.342 161.792 78.848 38.646 31.345 73.728 70.851 104.284 117.412 51.671 78.746 72.53 150.252 73.39 153.262 0.632 2.118 0.995 4.551 0.995 7.069 0 8.005-3.674 15.152-9.428 19.846l-0.046 0.037zM353.28 421.376c16.384 48.23 53.975 84.316 111.698 107.254 49.654 19.702 98.796 19.896 150.825 20.111 48.476 0.195 101.253 0.43 160.696 16.046-49.465-41.079-104.984-78.222-164.164-109.343l-5.236-2.509c-75.767-40.124-163.63-71.47-256.268-89.437l-6.020-0.972c-0.084 1.954-0.131 4.247-0.131 6.551 0 18.717 3.149 36.699 8.945 53.445l-0.345-1.147zM674.765 386.693c-42.424-34.253-89.631-57.201-140.288-68.198l-1.137-0.276c-15.922-4.404-34.205-6.935-53.079-6.935-40.040 0-77.42 11.39-109.076 31.107l0.875-0.508c93.228 20.178 175.672 50.636 252.152 90.895l-5.368-2.575c70.571 36.844 131.437 78.231 186.945 125.702l-1.345-1.123c-12.293-24.783-24.302-45.426-37.474-65.228l1.358 2.17c-27.638-41.882-59.116-77.22-93.573-105.042z" />
<glyph unicode="&#xe917;" glyph-name="euro" d="M787.456 286.423c-4.633 4.634-11.034 7.5-18.104 7.5s-13.471-2.866-18.104-7.5v0c-46.61-46.562-110.975-75.357-182.066-75.357-119.754 0-220.423 81.711-249.296 192.421l-0.397 1.792h270.336c14.138 0 25.6 11.462 25.6 25.6s-11.462 25.6-25.6 25.6v0h-277.811q-0.276 5.97-0.276 11.991c0.002 12.356 0.862 24.51 2.523 36.406l-0.157-1.375h313.549c14.138 0 25.6 11.462 25.6 25.6s-11.462 25.6-25.6 25.6v0h-301.189c13.561 37.502 34.264 69.517 60.664 95.818l0.008 0.008c49.234 49.234 118.641 75.776 190.464 72.919 63.775-2.57 121.19-28.447 157.614-71.004 0.236-0.287 0.471-0.563 0.717-0.84l0.573-0.625c4.674-4.912 11.26-7.968 18.56-7.968 14.138 0 25.6 11.462 25.6 25.6 0 4.186-1.004 8.136-2.785 11.625l0.067-0.145-1.864 3.717-2.232 2.232c-45.691 53.156-116.439 85.422-194.263 88.556-86.016 3.471-169.38-28.559-228.69-87.869-35.813-35.676-62.86-80.125-77.649-129.852l-0.554-2.172h-17.101c-14.138 0-25.6-11.462-25.6-25.6s11.462-25.6 25.6-25.6v0h6.912c-1.252-10.503-1.97-22.675-1.976-35.013v-0.008c0-4.014 0.102-8.008 0.246-11.991h-5.181c-14.138 0-25.6-11.462-25.6-25.6s11.462-25.6 25.6-25.6v0h11.397c30.317-141.187 154.068-245.485 302.179-245.485 85.246 0 162.422 34.55 218.289 90.411v0c4.634 4.633 7.5 11.034 7.5 18.104s-2.866 13.471-7.5 18.104v0z" />
<glyph unicode="&#xe918;" glyph-name="expand" d="M847.145 782.981h-234.383c-14.138 0-25.6-11.462-25.6-25.6s11.462-25.6 25.6-25.6v0h172.585l-282.235-282.235c-4.633-4.633-7.499-11.034-7.499-18.104 0-14.14 11.463-25.603 25.603-25.603 7.070 0 13.471 2.866 18.104 7.499l282.225 282.245v-172.585c0-14.138 11.462-25.6 25.6-25.6s25.6 11.462 25.6 25.6v0 234.383c0 14.138-11.462 25.6-25.6 25.6v0zM763.515 205.036h-517.448c-23.173 0-40.643 21.965-40.643 51.087v407.183c0 29.123 17.469 51.087 40.643 51.087h263.813c14.138 0 25.6-11.462 25.6-25.6s-11.462-25.6-25.6-25.6v0h-253.256v-406.958h496.333v163.84c0 14.138 11.462 25.6 25.6 25.6s25.6-11.462 25.6-25.6v0-163.953c0-29.123-17.48-51.087-40.643-51.087z" />
<glyph unicode="&#xe919;" glyph-name="filter" d="M775.885 794.214h-546.816c-23.142-0.102-41.882-18.842-41.882-41.984 0-1.536 0.102-2.97 0.41-4.506l23.962-135.475c1.434-13.414 12.288-22.221 40.243-42.906 17.203-12.8 41.267-29.798 67.584-47.923 24.781-16.998 49.971-33.792 69.12-46.080 10.035-6.451 17.715-11.264 23.654-14.746l9.114-255.181c0.307-17.408 14.541-31.334 31.949-31.334h98.611c17.408 0 31.539 13.926 31.949 31.334l9.114 255.181c5.939 3.482 13.517 8.294 23.654 14.746 19.149 12.288 44.339 29.082 69.12 46.080 26.317 18.125 50.381 35.123 67.584 47.923 27.853 20.685 38.81 29.594 40.243 42.906l24.064 135.475c0.307 1.434 0.41 2.97 0.41 4.506-0.205 23.142-18.944 41.984-42.086 41.984zM471.757 225.28l-8.090 225.485h77.517l-8.090-225.485h-61.338zM743.834 627.098c-9.83-8.397-37.99-29.594-89.293-64.717-44.851-30.72-80.691-53.76-92.57-60.314h-119.194c-11.878 6.554-47.718 29.594-92.57 60.314-51.2 35.123-79.36 56.32-89.19 64.717l-20.582 115.917h524.083l-20.685-115.917z" />
<glyph unicode="&#xe91a;" glyph-name="flag" d="M798.822 718.643c-8.602 4.301-18.944 3.379-26.726-2.355-24.371-18.022-60.109-26.419-106.394-24.883-41.984 1.434-92.365 11.366-145.818 28.672-67.072 21.811-200.602 39.526-293.478-0.922-9.318-4.096-15.36-13.312-15.36-23.45v-570.368c0-14.131 11.469-25.6 25.6-25.6s25.6 11.469 25.6 25.6v204.902c31.539 10.547 71.27 15.258 116.019 13.824 43.52-1.434 90.624-9.114 125.747-20.582 58.675-19.046 112.435-29.491 159.846-31.13 58.061-1.946 104.755 9.83 138.547 34.918 6.554 4.813 10.342 12.493 10.342 20.582v347.955c0.102 9.626-5.325 18.534-13.926 22.835zM761.754 361.779c-23.757-13.414-56.013-19.558-96.051-18.227-41.984 1.434-92.365 11.264-145.818 28.672-37.888 12.288-96.87 23.347-157.696 23.347-33.792 0-68.198-3.379-99.942-11.776v294.4c31.539 10.547 71.27 15.258 116.019 13.824 43.52-1.434 90.624-9.114 125.747-20.582 58.778-19.046 112.538-29.594 159.846-31.13 37.478-1.229 70.144 3.174 97.792 13.21l0.102-291.738z" />
<glyph unicode="&#xe91b;" glyph-name="full-screen" d="M790.938 739.635h-190.054c-14.131 0-25.6-11.469-25.6-25.6s11.469-25.6 25.6-25.6h128.205l-178.79-178.79c-10.035-10.035-10.035-26.214 0-36.25s26.214-10.035 36.25 0v0l178.79 178.79v-128.307c0-14.131 11.469-25.6 25.6-25.6s25.6 11.469 25.6 25.6v190.157c0 14.131-11.469 25.6-25.6 25.6zM470.938 430.387l-178.79-178.893v128.307c0 14.131-11.469 25.6-25.6 25.6s-25.6-11.469-25.6-25.6v-190.054c0-14.131 11.469-25.6 25.6-25.6h190.054c14.131 0 25.6 11.469 25.6 25.6s-11.469 25.6-25.6 25.6h-128.205l178.79 178.79c10.035 10.035 10.035 26.214 0 36.25-10.035 9.933-26.214 9.933-36.25 0z" />
<glyph unicode="&#xe91c;" glyph-name="general" d="M514.406 689.377c-0.72 0.009-1.569 0.014-2.42 0.014-114.97 0-208.333-92.516-209.7-207.163l-0.001-0.129q0-2.355 0-4.71c0-40.847 14.715-81.92 35.031-138.721 13.189-36.864 29.614-82.842 46.254-140.739 3.172-10.777 12.969-18.512 24.575-18.524h207.361c11.584 0 21.371 7.694 24.529 18.251l0.047 0.181c16.609 57.231 32.963 102.871 46.080 139.551 20.562 57.395 35.43 98.898 35.471 139.991 0.008 0.674 0.012 1.47 0.012 2.267 0 114.97-92.515 208.332-207.161 209.7l-0.129 0.001zM670.495 477.542c0-32.256-12.913-68.301-32.471-122.88-11.94-33.331-26.501-73.953-41.615-124.078h-169.062c-15.176 50.77-29.809 91.709-41.82 125.297-19.292 53.975-32.041 89.631-32.041 121.641 0 0.102 0 0.195 0 0.297q0 1.833 0 3.656c1.041 86.731 71.578 156.643 158.451 156.672h1.887c86.754-1.035 156.683-71.603 156.683-158.505 0-0.645-0.004-1.288-0.012-1.931l0.001 0.098c0-0.113 0-0.164 0-0.266zM615.537 158.208h-207.36c-14.138 0-25.6-11.462-25.6-25.6s11.462-25.6 25.6-25.6v0h207.36c14.138 0 25.6 11.462 25.6 25.6s-11.462 25.6-25.6 25.6v0zM615.537 97.792h-207.36c-14.138 0-25.6-11.462-25.6-25.6s11.462-25.6 25.6-25.6v0h207.36c14.138 0 25.6 11.462 25.6 25.6s-11.462 25.6-25.6 25.6v0zM895.314 508.15h-138.834c-7.069 0-12.8-5.731-12.8-12.8s5.731-12.8 12.8-12.8v0h138.834c7.069 0 12.8 5.731 12.8 12.8s-5.731 12.8-12.8 12.8v0zM705.167 647.946c0.006 0 0.013 0 0.019 0 3.519 0 6.704 1.424 9.013 3.728v0l80.579 80.292c2.532 2.346 4.111 5.688 4.111 9.399 0 7.069-5.731 12.8-12.8 12.8-3.699 0-7.031-1.569-9.367-4.077l-0.007-0.008-80.579-80.292c-2.329-2.318-3.771-5.527-3.771-9.073 0-7.069 5.731-12.8 12.8-12.8 0.001 0 0.002 0 0.003 0v0zM267.52 508.15h-138.834c-7.069 0-12.8-5.731-12.8-12.8s5.731-12.8 12.8-12.8v0h138.834c7.069 0 12.8 5.731 12.8 12.8s-5.731 12.8-12.8 12.8v0zM309.801 656.21c2.26-2.044 5.27-3.295 8.573-3.295 7.069 0 12.8 5.731 12.8 12.8 0 3.311-1.257 6.328-3.319 8.6l0.010-0.011-80.579 80.292c-2.315 2.307-5.509 3.734-9.037 3.734-7.070 0-12.802-5.732-12.802-12.802 0-3.543 1.439-6.749 3.765-9.067v0zM512 713.134c7.069 0 12.8 5.731 12.8 12.8v0 138.834c0 7.069-5.731 12.8-12.8 12.8s-12.8-5.731-12.8-12.8v0-138.834c0-7.069 5.731-12.8 12.8-12.8v0z" />
<glyph unicode="&#xe91d;" glyph-name="hardware" d="M852.89 331.469h-681.779c-17.715 0-32.154 14.438-32.154 32.154v278.63c0 17.715 14.438 32.154 32.154 32.154h681.882c17.715 0 32.154-14.438 32.154-32.154v-278.63c-0.102-17.818-14.438-32.154-32.256-32.154zM190.054 382.669h643.789v240.538h-643.789v-240.538zM783.155 546.611h-542.31c-7.066 0-12.8 5.734-12.8 12.8s5.734 12.8 12.8 12.8v0h542.31c7.066 0 12.8-5.734 12.8-12.8s-5.734-12.8-12.8-12.8zM757.76 425.267c-21.094 0-38.195 17.101-38.093 38.195 0 21.094 17.101 38.195 38.195 38.093 21.094 0 38.195-17.101 38.093-38.195 0 0 0 0 0 0 0-21.094-17.101-38.093-38.195-38.093zM757.76 475.955c-6.963 0-12.595-5.632-12.493-12.595 0-6.963 5.632-12.595 12.595-12.493 6.861 0 12.493 5.632 12.493 12.493 0 6.963-5.632 12.595-12.595 12.595 0 0 0 0 0 0v0z" />
<glyph unicode="&#xe91e;" glyph-name="home" d="M834.376 505.989l-305.9 257.27c-4.42 3.736-10.183 6.007-16.476 6.007s-12.056-2.271-16.514-6.038l0.038 0.031-305.9-257.27c-5.595-4.727-9.125-11.749-9.125-19.594 0-14.139 11.462-25.601 25.601-25.601 6.293 0 12.056 2.271 16.514 6.038l-0.038-0.031 20.275 17.039v-278.733c0-21.914 19.087-39.086 43.459-39.086h451.369c24.371 0 43.459 17.162 43.459 39.086v278.733l20.275-17.050c4.42-3.736 10.183-6.007 16.476-6.007 14.139 0 25.601 11.462 25.601 25.601 0 7.846-3.529 14.867-9.087 19.563l-0.038 0.031zM577.28 217.221h-130.56v180.746h130.56zM729.938 217.221h-127.058v191.027c0 8.483-6.877 15.36-15.36 15.36v0h-151.091c-8.483 0-15.36-6.877-15.36-15.36v0-191.027h-127.017v309.699l217.948 183.296 217.948-183.296z" />
<glyph unicode="&#xe91f;" glyph-name="info" d="M512 599.982c-21.208 0-38.4 17.192-38.4 38.4v0 21.811c0 21.208 17.192 38.4 38.4 38.4s38.4-17.192 38.4-38.4v0-21.821c-0.006-21.203-17.196-38.39-38.4-38.39v0zM615.424 340.982h-71.762v192.788c0 14.138-11.462 25.6-25.6 25.6v0h-75.254c-14.138 0-25.6-11.462-25.6-25.6s11.462-25.6 25.6-25.6v0h49.644v-167.188h-75.684c-14.138 0-25.6-11.462-25.6-25.6s11.462-25.6 25.6-25.6v0h198.656c14.138 0 25.6 11.462 25.6 25.6s-11.462 25.6-25.6 25.6v0zM512 147.712c-0.001 0-0.003 0-0.004 0-180.407 0-326.656 146.249-326.656 326.656s146.249 326.656 326.656 326.656c180.407 0 326.656-146.249 326.656-326.656 0-90.205-36.564-171.87-95.678-230.984v0c-58.786-59.099-140.165-95.674-230.086-95.674-0.312 0-0.624 0-0.935 0.001h0.048zM512 749.824c-0.001 0-0.002 0-0.004 0-152.13 0-275.456-123.326-275.456-275.456s123.326-275.456 275.456-275.456c152.13 0 275.456 123.326 275.456 275.456 0 76.064-30.831 144.928-80.678 194.775v0c-49.571 49.832-118.193 80.672-194.017 80.672-0.266 0-0.533 0-0.799-0.001h0.041z" />
<glyph unicode="&#xe920;" glyph-name="install" d="M493.875 316.621c10.035-10.035 26.214-10.035 36.25 0 0 0 0 0 0 0l162.406 162.406c10.035 10.035 10.035 26.214 0 36.25s-26.214 10.035-36.25 0l-118.682-118.682v389.939c0 14.131-11.469 25.6-25.6 25.6s-25.6-11.469-25.6-25.6v-389.939l-118.784 118.682c-10.035 10.035-26.214 10.035-36.25 0s-10.035-26.214 0-36.25l162.509-162.406zM780.288 380.723c-14.131 0-25.6-11.469-25.6-25.6v-160.051h-485.376v157.389c0 14.131-11.469 25.6-25.6 25.6s-25.6-11.469-25.6-25.6v-158.003c0-28.877 17.306-50.586 40.346-50.586h507.085c23.040 0 40.346 21.709 40.346 50.586v160.768c0 14.131-11.469 25.6-25.6 25.498z" />
<glyph unicode="&#xe921;" glyph-name="logout" d="M837.571 494.664l-126.013 126.013c-4.633 4.633-11.034 7.499-18.104 7.499-14.14 0-25.603-11.463-25.603-25.603 0-7.070 2.866-13.471 7.499-18.104l84.060-84.060h-303.831c-14.138 0-25.6-11.462-25.6-25.6s11.462-25.6 25.6-25.6v0h300.339l-80.558-80.558c-4.633-4.633-7.499-11.034-7.499-18.104 0-14.14 11.463-25.603 25.603-25.603 7.070 0 13.471 2.866 18.104 7.499l126.003 126.024c4.634 4.633 7.5 11.034 7.5 18.104s-2.866 13.471-7.5 18.104v0zM611.564 334.643c-14.138 0-25.6-11.462-25.6-25.6v0-88.207h-312.934v494.592h312.934v-88.228c0-14.138 11.462-25.6 25.6-25.6s25.6 11.462 25.6 25.6v0 94.403c0 25.6-15.923 44.984-37.038 44.984h-341.258c-21.115 0-37.038-19.333-37.038-44.984v-506.993c0-25.6 15.923-44.984 37.038-44.984h341.258c21.115 0 37.038 19.333 37.038 44.984v94.433c0 14.138-11.462 25.6-25.6 25.6v0z" />
<glyph unicode="&#xe922;" glyph-name="mail" d="M837.038 702.331h-650.076c-24.505-0.081-44.339-19.966-44.339-44.482 0-0.014 0-0.029 0-0.043v0.002-399.073c0-0.012 0-0.027 0-0.041 0-24.517 19.834-44.401 44.331-44.482h650.084c24.505 0.081 44.339 19.966 44.339 44.482 0 0.014 0 0.029 0 0.043v-0.002 399.084c0 0.009 0 0.020 0 0.031 0 24.517-19.834 44.401-44.331 44.482h-0.008zM785.469 651.131l-273.469-217.897-273.459 217.897zM193.823 265.411v355.891l302.223-240.824c4.333-3.476 9.898-5.579 15.954-5.579s11.621 2.103 16.004 5.618l-0.050-0.039 302.223 240.824v-355.891z" />
<glyph unicode="&#xe923;" glyph-name="mess" d="M794.737 169.359l-32.522 303.596c9.547 3.862 16.159 13.057 16.159 23.795 0 0.001 0 0.002 0 0.002v0 48.978c-0.004 10.034-5.78 18.717-14.188 22.912l-0.148 0.067-261.376 128.307v50.801h84.255c7.069 0 12.8 5.731 12.8 12.8v0 58.931c0 7.069-5.731 12.8-12.8 12.8v0h-97.055c-7.069 0-12.8-5.731-12.8-12.8v0-122.532l-261.396-128.307c-8.556-4.261-14.332-12.945-14.336-22.978v-48.989c0.025-11.15 7.175-20.623 17.136-24.112l0.179-0.055-32.481-303.217c-0.093-0.817-0.145-1.764-0.145-2.724 0-14.138 11.462-25.6 25.6-25.6 0.001 0 0.001 0 0.002 0h218.061c0.001 0 0.002 0 0.004 0 11.119 0 20.583 7.089 24.117 16.994l0.056 0.179 36.188 104.346 36.987-104.448c3.622-10.024 13.056-17.060 24.133-17.060 0.001 0 0.002 0 0.002 0h218.112c0.001 0 0.001 0 0.002 0 14.138 0 25.6 11.462 25.6 25.6 0 0.96-0.053 1.907-0.156 2.839l0.010-0.115zM502.661 806.748h71.455v-33.321h-71.455zM252.539 529.777l237.322 116.49 237.312-116.49v-7.434h-474.634zM569.262 192.225l-55.296 156.262c-3.622 10.024-13.056 17.060-24.133 17.060-0.001 0-0.002 0-0.002 0h-0.082c-11.101-0.037-20.535-7.134-24.050-17.034l-0.055-0.179-54.18-156.109h-171.356l29.88 278.917h440.934l29.88-278.917z" />
<glyph unicode="&#xe924;" glyph-name="mobile-cart" d="M796.191 250.368l-102.4 525.312c-10.24 55.296-64.512 92.16-119.808 80.896l-231.424-44.032c-26.624-5.12-50.176-21.504-65.536-44.032s-20.48-50.176-15.36-76.8l101.376-524.288c6.144-27.648 21.504-50.176 44.032-65.536 15.871-11.522 35.741-18.432 57.225-18.432 0.042 0 0.084 0 0.125 0h-0.007c6.144 0 13.312 1.024 250.88 47.104 47.465 9.843 82.628 51.312 82.628 100.994 0 6.652-0.63 13.157-1.835 19.459l0.103-0.645zM311.839 700.928c-0.762 3.182-1.198 6.836-1.198 10.591 0 10.672 3.527 20.52 9.478 28.443l-0.088-0.122c7.168 11.264 19.456 19.456 32.768 22.528l230.4 44.032c27.648 5.12 55.296-12.288 60.416-40.96l91.136-466.944-331.776-63.488zM705.055 180.736l-230.4-45.056c-13.312-2.048-27.648 0-38.912 8.192s-19.456 19.456-21.504 32.768l-7.168 32.768 331.776 64.512 7.168-32.768c5.12-27.648-13.312-55.296-40.96-60.416zM575.007 231.936c-16.384-3.072-26.624-18.432-23.552-34.816s19.456-26.624 34.816-23.552c16.384 3.072 27.648 18.432 23.552 34.816-3.072 16.384-18.432 26.624-34.816 23.552zM588.319 496.128c-17.824-4.020-31.342-18.573-33.767-36.641l-0.025-0.223-33.792-7.168c-9.216 16.384-26.624 25.6-46.080 21.504-22.528-4.096-37.888-26.624-33.792-50.176 4.096-20.48 22.528-33.792 41.984-33.792h8.192c18.432 4.096 32.768 19.456 34.816 37.888l33.792 6.144c7.168-13.312 21.504-22.528 36.864-22.528 3.072 0 6.144 0 8.192 1.024 19.866 3.43 34.787 20.533 34.787 41.121 0 3.209-0.363 6.334-1.049 9.335l0.054-0.28c-4.096 22.528-26.624 37.888-50.176 33.792zM497.183 422.4c-2.048-4.096-6.144-6.144-11.264-7.168-4.096-1.024-8.192 0-12.288 2.048-3.566 2.751-6.129 6.649-7.143 11.134l-0.025 0.13c-1.024 4.096 0 9.216 2.048 13.312 3.072 3.072 7.168 6.144 11.264 7.168h3.072c0.117 0.003 0.255 0.004 0.394 0.004 3.683 0 7.097-1.151 9.902-3.113l-0.056 0.037c3.657-2.67 6.253-6.604 7.149-11.149l0.019-0.115c0-4.096 0-8.192-3.072-12.288zM613.919 457.216c0.218-1 0.343-2.149 0.343-3.328 0-3.778-1.285-7.256-3.442-10.021l0.027 0.036c-2.474-3.43-6.004-5.963-10.108-7.136l-0.132-0.032c-0.14-0.002-0.305-0.004-0.47-0.004-4.686 0-9.106 1.137-13 3.15l0.158-0.074c-4.096 2.048-6.144 6.144-7.168 11.264-2.048 9.216 4.096 17.408 13.312 19.456 1.163 0.246 2.5 0.387 3.869 0.387 3.465 0 6.72-0.903 9.542-2.486l-0.098 0.051c3.072-3.072 6.144-7.168 7.168-11.264zM417.311 607.744l21.504-112.64c0.96-5.841 5.972-10.243 12.012-10.243 0.097 0 0.194 0.001 0.29 0.003h3.058l112.64 22.528c19.456 2.048 36.864 12.288 47.104 28.672 0 1.024 1.024 2.048 1.024 3.072 6.144 22.528 10.24 46.080 10.24 69.632 0 4.096-1.024 8.192-4.096 10.24-2.099 2.143-5.021 3.471-8.254 3.471-1.070 0-2.107-0.146-3.091-0.418l0.081 0.019-163.84-31.744-6.144 34.816c-1.024 4.096-3.072 7.168-6.144 8.192-1.719 1.514-3.99 2.438-6.476 2.438-0.976 0-1.919-0.142-2.809-0.408l0.069 0.018-44.032-8.192c-7.168-1.024-11.264-8.192-10.24-15.36 1.024-6.144 8.192-11.264 15.36-10.24zM598.559 593.408c-1.272-16.566-4.179-31.91-8.591-46.604l0.399 1.548c-6.144-9.216-15.36-14.336-26.624-15.36h-1.024l-101.376-20.48-10.24 52.224z" />
<glyph unicode="&#xe925;" glyph-name="mobile" d="M701.768 811.459l-232.366 34.877c-4.56 0.715-9.82 1.123-15.175 1.123-51.489 0-94.159-37.756-101.835-87.093l-0.074-0.579-79.217-528.364c-0.721-4.58-1.133-9.863-1.133-15.241 0-44.455 28.153-82.334 67.603-96.781l0.715-0.229c5.521-2.033 12.046-3.714 18.783-4.75l0.581-0.073 232.397-34.816c55.747-8.192 108.012 30.474 116.511 86.241l79.278 528.701c0.703 4.526 1.105 9.747 1.105 15.061 0 51.331-37.488 93.907-86.58 101.842l-0.592 0.079zM599.532 130.15l-232.284 34.816c-25.093 3.866-44.082 25.306-44.082 51.181 0 2.71 0.208 5.371 0.61 7.968l-0.037-0.29 4.905 32.768 334.254-50.156-4.956-33.044c-3.972-24.936-25.323-43.767-51.072-43.767-2.588 0-5.133 0.19-7.619 0.558l0.282-0.034zM737.208 702.034l-70.523-470.282-334.244 50.125 70.513 470.252c3.883 25.109 25.342 44.106 51.238 44.106 2.693 0 5.338-0.205 7.921-0.602l-0.289 0.036 232.182-34.816c24.947-4.056 43.761-25.445 43.761-51.228 0-2.678-0.203-5.309-0.594-7.878l0.036 0.288zM494.411 221.864c16.303-2.445 27.537-17.644 25.092-33.947s-17.644-27.537-33.947-25.092c-16.303 2.445-27.537 17.644-25.092 33.947s17.644 27.537 33.947 25.092z" />
<glyph unicode="&#xe926;" glyph-name="network" d="M852.931 751.104c-0.020 0-0.044 0-0.067 0-45.809 0-82.944-37.135-82.944-82.944 0-11.95 2.527-23.31 7.076-33.574l-0.209 0.529-127.57-82.76c-10.516 18.845-24.899 34.354-42.171 45.872l-0.479 0.301 42.168 88.361c7.115-2.474 15.315-3.903 23.85-3.903 41.318 0 74.813 33.495 74.813 74.813s-33.495 74.813-74.813 74.813c-41.318 0-74.813-33.495-74.813-74.813 0-23.731 11.049-44.881 28.283-58.587l0.153-0.117-42.301-88.637c-14.423 5.997-31.176 9.48-48.743 9.48-42.834 0-80.831-20.709-104.526-52.66l-0.248-0.351-117.115 77.824c10.949 16.656 17.464 37.074 17.464 59.015 0 59.891-48.551 108.442-108.442 108.442s-108.442-48.551-108.442-108.442c0-59.891 48.551-108.442 108.442-108.442 28.877 0 55.117 11.287 74.551 29.69l-0.050-0.047 120.474-80.067c-7.736-16.148-12.256-35.103-12.256-55.113 0-46.667 24.58-87.592 61.5-110.536l0.553-0.32-79.647-134.011c-12.132 6.162-26.454 9.771-41.62 9.771-51.651 0-93.522-41.871-93.522-93.522s41.871-93.522 93.522-93.522c51.651 0 93.522 41.871 93.522 93.522 0 27.454-11.829 52.145-30.669 69.253l-0.077 0.069 81.521 137.216c13.353-5.071 28.792-8.008 44.917-8.008 28.504 0 54.865 9.175 76.29 24.733l-0.375-0.26 61.123-61.123c-10.333-12.427-16.605-28.551-16.605-46.14 0-39.989 32.418-72.407 72.407-72.407s72.407 32.418 72.407 72.407c0 39.989-32.418 72.407-72.407 72.407-13.321 0-25.802-3.597-36.524-9.873l0.342 0.185-61.399 61.471c21.703 23.178 35.032 54.43 35.032 88.795 0 13.765-2.138 27.030-6.101 39.481l0.253-0.921 131.072 84.992c15.28-17.376 37.559-28.283 62.385-28.283 45.809 0 82.944 37.135 82.944 82.944 0 45.781-37.090 82.899-82.86 82.944h-0.004zM672.348 781.046c12.928 0 23.409-10.48 23.409-23.409s-10.48-23.409-23.409-23.409c-12.928 0-23.409 10.48-23.409 23.409v0c0.017 12.921 10.487 23.391 23.407 23.409h0.002zM222.474 646.533c-31.472 0-56.986 25.513-56.986 56.986s25.513 56.986 56.986 56.986c31.472 0 56.986-25.513 56.986-56.986v0c-0.041-31.456-25.53-56.945-56.982-56.986h-0.004zM346.112 119.224c-23.22 0.023-42.035 18.853-42.035 42.076 0 23.238 18.838 42.076 42.076 42.076s42.076-18.838 42.076-42.076c0-0.007 0-0.014 0-0.022v0.001c-0.035-23.234-18.878-42.056-42.117-42.056 0 0 0 0 0 0v0zM535.091 410.86c-43.597 0-78.94 35.343-78.94 78.94s35.343 78.94 78.94 78.94c43.597 0 78.94-35.343 78.94-78.94v0c-0.047-43.564-35.338-78.87-78.892-78.94h-0.007zM727.859 298.097c11.639 0 21.074-9.435 21.074-21.074s-9.435-21.074-21.074-21.074c-11.628 0-21.056 9.418-21.074 21.042v0.002c0 0.003 0 0.007 0 0.010 0 11.643 9.433 21.083 21.073 21.094h0.001zM852.931 636.262c-17.566 0-31.805 14.24-31.805 31.805s14.24 31.805 31.805 31.805c17.566 0 31.805-14.24 31.805-31.805v0c-0.017-17.559-14.247-31.788-31.804-31.805h-0.002z" />
<glyph unicode="&#xe927;" glyph-name="new-page" d="M744.755 592.486l-216.064 230.912c-4.813 5.222-11.571 8.090-18.637 8.090h-198.656c-22.221 0-39.014-20.787-39.014-48.333v-547.942c0-27.546 16.794-48.333 39.014-48.333h401.306c22.221 0 39.014 20.787 39.014 48.333v339.763c0 6.554-2.458 12.8-6.963 17.51zM534.528 610.202v131.994l133.427-142.643h-123.392c-5.427 0-10.035 4.096-10.035 10.65zM323.584 237.978v542.31h159.846v-170.086c0-35.226 20.173-61.747 47.002-61.747h169.984v-310.374h-376.832z" />
<glyph unicode="&#xe928;" glyph-name="order" d="M714.752 123.904h-455.516c-22.149 0-38.84 20.654-38.84 48.036v539.566c0 27.382 16.701 48.036 38.84 48.036h212.931c14.138 0 25.6-11.462 25.6-25.6s-11.462-25.6-25.6-25.6v0h-200.581v-533.238h430.787v198.001c0 14.138 11.462 25.6 25.6 25.6s25.6-11.462 25.6-25.6v0-201.165c0-27.382-16.701-48.036-38.82-48.036zM645.97 417.065l-44.308 41.984-59.965 11.479-14.551 59.31-44.308 41.984 19.835 57.764-14.551 59.31 47.913 37.888 19.835 57.764 60.785 5.96 47.913 37.888 54.282-27.843 60.785 5.96 30.669-52.818 54.354-27.853-2.755-61.010 30.669-52.818-35.297-49.838-2.755-61.010-56.637-22.835-35.277-49.787-59.996 11.366zM583.506 514.662l42.445-8.069 31.345-29.696 40.11 16.159 42.445-8.069 24.975 35.256 40.038 16.118 1.946 43.162 24.975 35.256-21.699 37.356 1.946 43.162-38.451 19.702-21.699 37.356-43.008-4.219-38.451 19.702-33.894-26.788-43.008-4.219-13.937-40.858-33.925-26.788 10.24-41.984-14.029-40.858 31.345-29.696zM829.665 518.758v0zM611.748 242.237h-249.539c-7.069 0-12.8 5.731-12.8 12.8s5.731 12.8 12.8 12.8v0h249.539c7.069 0 12.8-5.731 12.8-12.8s-5.731-12.8-12.8-12.8v0zM611.748 324.598h-249.539c-7.069 0-12.8 5.731-12.8 12.8s5.731 12.8 12.8 12.8v0h249.539c7.069 0 12.8-5.731 12.8-12.8s-5.731-12.8-12.8-12.8v0zM512.369 406.385h-150.159c-7.069 0-12.8 5.731-12.8 12.8s5.731 12.8 12.8 12.8v0h150.159c7.069 0 12.8-5.731 12.8-12.8s-5.731-12.8-12.8-12.8v0z" />
<glyph unicode="&#xe929;" glyph-name="press" d="M850.944 635.812h-39.045v57.262c0 14.138-11.462 25.6-25.6 25.6v0h-613.243c-14.138 0-25.6-11.462-25.6-25.6v0-408.146c0-43.971 24.904-77.128 57.917-77.128h613.263c33.024 0 57.917 33.157 57.917 77.128v325.284c0 14.138-11.462 25.6-25.6 25.6-0.004 0-0.007 0-0.011 0h0.001zM206.469 258.98c-2.458 1.823-7.813 10.076-7.813 25.928v382.566h562.043v-382.546c-0.001-0.15-0.001-0.327-0.001-0.504 0-9.033 1.17-17.794 3.366-26.138l-0.16 0.714zM825.344 284.897c0-13.21-3.717-21.125-6.369-24.453-2.959 3.502-7.066 11.561-7.066 24.474v299.694h13.435zM704.451 617.636h-441.487c-14.138 0-25.6-11.462-25.6-25.6s11.462-25.6 25.6-25.6v0h441.487c14.138 0 25.6 11.462 25.6 25.6s-11.462 25.6-25.6 25.6v0zM438.764 485.632h-168.724c-7.069 0-12.8-5.731-12.8-12.8s5.731-12.8 12.8-12.8v0h168.724c7.069 0 12.8 5.731 12.8 12.8s-5.731 12.8-12.8 12.8v0zM438.764 397.732h-168.724c-7.069 0-12.8-5.731-12.8-12.8s5.731-12.8 12.8-12.8v0h168.724c7.069 0 12.8 5.731 12.8 12.8s-5.731 12.8-12.8 12.8v0zM704.451 492.698h-158.659c-7.069 0-12.8-5.731-12.8-12.8v0-108.104c0-7.069 5.731-12.8 12.8-12.8v0h158.659c7.069 0 12.8 5.731 12.8 12.8v0 108.104c0 7.069-5.731 12.8-12.8 12.8v0zM691.651 384.584h-133.007v82.514h133.007z" />
<glyph unicode="&#xe92a;" glyph-name="price-list" d="M669.020 385.536c2.316-2.311 5.512-3.739 9.042-3.739 7.070 0 12.802 5.732 12.802 12.802 0 3.54-1.437 6.745-3.76 9.062v0c-19.375 19.379-46.143 31.365-75.71 31.365-44.068 0-81.917-26.626-98.338-64.667l-0.267-0.694h-5.908c-0.011 0-0.025 0-0.038 0-7.069 0-12.8-5.731-12.8-12.8 0-6.628 5.038-12.080 11.494-12.734l0.054-0.004c-0.775-4.86-1.218-10.464-1.218-16.172 0-3.001 0.122-5.974 0.363-8.913l-0.025 0.386c-6.072-1.071-10.626-6.306-10.626-12.605 0-7.064 5.726-12.79 12.79-12.79 0.003 0 0.005 0 0.008 0h2.969c14.658-42.849 54.58-73.107 101.57-73.107 29.551 0 56.307 11.967 75.686 31.319l-0.001-0.001c2.317 2.317 3.75 5.517 3.75 9.052 0 7.070-5.732 12.802-12.802 12.802-3.535 0-6.736-1.433-9.052-3.75v0c-14.742-14.746-35.11-23.867-57.609-23.867-32.693 0-60.888 19.26-73.857 47.052l-0.21 0.501h80.896c7.069 0 12.8 5.731 12.8 12.8s-5.731 12.8-12.8 12.8v0h-87.788c-0.269 2.493-0.422 5.386-0.422 8.314 0 5.708 0.582 11.28 1.691 16.66l-0.091-0.531h99.328c7.069 0 12.8 5.731 12.8 12.8s-5.731 12.8-12.8 12.8v0h-89.498c14.475 23.959 40.378 39.731 69.965 39.731 22.501 0 42.871-9.122 57.615-23.869v0zM755.446 803.994h-453.253c-22.077 0-38.728-21.402-38.728-49.777v-581.376c0-28.375 16.65-49.777 38.728-49.777h453.253c22.077 0 38.728 21.402 38.728 49.777v581.335c-0.010 28.426-16.65 49.818-38.728 49.818zM742.973 174.234h-428.308v578.56h428.298zM458.312 487.24h219.761c7.069 0 12.8 5.731 12.8 12.8s-5.731 12.8-12.8 12.8v0h-219.761c-7.069 0-12.8-5.731-12.8-12.8s5.731-12.8 12.8-12.8v0zM379.556 486.789h31.631c7.069 0 12.8 5.731 12.8 12.8s-5.731 12.8-12.8 12.8v0h-31.631c-7.069 0-12.8-5.731-12.8-12.8s5.731-12.8 12.8-12.8v0zM458.312 570.696h219.761c7.069 0 12.8 5.731 12.8 12.8s-5.731 12.8-12.8 12.8v0h-219.761c-7.069 0-12.8-5.731-12.8-12.8s5.731-12.8 12.8-12.8v0zM379.556 570.255h31.631c7.069 0 12.8 5.731 12.8 12.8s-5.731 12.8-12.8 12.8v0h-31.631c-7.069 0-12.8-5.731-12.8-12.8s5.731-12.8 12.8-12.8v0zM458.312 654.162h219.761c7.069 0 12.8 5.731 12.8 12.8s-5.731 12.8-12.8 12.8v0h-219.761c-7.069 0-12.8-5.731-12.8-12.8s5.731-12.8 12.8-12.8v0zM379.556 653.711h31.631c7.069 0 12.8 5.731 12.8 12.8s-5.731 12.8-12.8 12.8v0h-31.631c-7.069 0-12.8-5.731-12.8-12.8s5.731-12.8 12.8-12.8v0z" />
<glyph unicode="&#xe92b;" glyph-name="price" d="M774.39 224.051v0.256l-97.833 462.285c-2.182 10.738-7.684 19.938-15.369 26.722l-0.052 0.045-146.504 124.355c-8.386 7.036-19.296 11.311-31.205 11.311-3.347 0-6.614-0.338-9.771-0.98l0.313 0.053-103.926-22.139c-14.813-3.094-26.909-12.675-33.369-25.569l-0.126-0.277-82.995-172.349c-3.021-6.147-4.787-13.379-4.787-21.024 0-3.432 0.356-6.781 1.033-10.012l-0.055 0.316 97.802-462.387v-0.184c4.791-21.928 24.043-38.103 47.072-38.103 0.011 0 0.022 0 0.033 0h-0.002c3.263 0.006 6.448 0.326 9.53 0.932l-0.314-0.051h0.256l332.984 70.349c21.976 4.786 38.19 24.074 38.19 47.149 0 3.292-0.33 6.507-0.959 9.613l0.052-0.309zM300.093 606.413l81.725 169.708 100.936 21.504 143.8-122.061 85.709-405.207-326.093-70.892zM397.036 148.111l-5.56 26.307 326.103 70.892 5.96-28.18zM441.344 606.812c8.86-5.875 19.739-9.375 31.436-9.38h0.001c4.284 0.001 8.459 0.464 12.479 1.34l-0.386-0.071c26.395 5.727 45.877 28.886 45.877 56.594 0 31.947-25.898 57.846-57.846 57.846s-57.846-25.898-57.846-57.846c0-20.214 10.368-38.007 26.077-48.349l0.218-0.135zM445.87 672.881c5.841 8.875 15.757 14.652 27.023 14.652 17.809 0 32.246-14.437 32.246-32.246s-14.437-32.246-32.246-32.246c-15.448 0-28.359 10.864-31.511 25.368l-0.039 0.213c-0.46 2.034-0.723 4.37-0.723 6.767 0 6.506 1.94 12.559 5.272 17.612l-0.074-0.12z" />
<glyph unicode="&#xe92c;" glyph-name="print" d="M805.376 626.995h-98.918v150.733c0 14.131-11.469 25.6-25.6 25.6h-351.846c-14.131 0-25.6-11.469-25.6-25.6v-150.733h-91.238c-14.131 0-25.6-11.469-25.6-25.6v-249.958c0-14.131 11.469-25.6 25.6-25.6h91.238v-84.48c0-14.131 11.469-25.6 25.6-25.6h351.846c14.131 0 25.6 11.469 25.6 25.6v84.48h98.918c14.131 0 25.6 11.469 25.6 25.6v249.958c0 14.131-11.469 25.6-25.6 25.6 0 0 0 0 0 0zM354.611 752.128h300.646v-125.133h-300.646v125.133zM354.611 266.957v214.323h300.646v-214.323h-300.646zM779.776 377.037h-73.318v104.243h20.173c7.066 0 12.8 5.734 12.8 12.8s-5.734 12.8-12.8 12.8h-444.826c-7.066 0-12.8-5.734-12.8-12.8s5.734-12.8 12.8-12.8h21.606v-104.346h-65.638v198.861h542.003v-198.758z" />
<glyph unicode="&#xe92d;" glyph-name="process" d="M524.759 349.839c-0.003 0-0.007 0-0.010 0-61.282 0-110.961 49.679-110.961 110.961s49.679 110.961 110.961 110.961c61.282 0 110.961-49.679 110.961-110.961v0c-0.070-61.25-49.701-110.885-110.943-110.961h-0.007zM524.759 546.161c-47.143 0-85.361-38.217-85.361-85.361s38.217-85.361 85.361-85.361c47.143 0 85.361 38.217 85.361 85.361v0c-0.052 47.122-38.238 85.308-85.356 85.361h-0.005zM492.134 129.536h-0.553c-26.749 0.341-48.303 22.105-48.303 48.903 0 0.088 0 0.175 0.001 0.263v-0.014 35.656c-13.495 4.457-24.787 9.184-35.644 14.649l1.493-0.681-26.153-26.143c-8.792-8.565-20.818-13.847-34.077-13.847-13.652 0-25.997 5.6-34.862 14.628l-0.007 0.007-47.094 46.971c-8.565 8.792-13.847 20.818-13.847 34.077 0 13.657 5.604 26.006 14.638 34.872l0.008 0.007 25.129 25.19c-4.947 9.483-9.759 20.82-13.714 32.552l-0.51 1.742h-36.864c-26.744 0.311-48.304 22.064-48.304 48.852 0 0.138 0.001 0.276 0.002 0.413v-0.021 66.007q0 0.471 0 0.942c0.312 26.744 22.064 48.303 48.852 48.303 0.127 0 0.254 0 0.381-0.001h35.626c4.543 13.499 9.342 24.789 14.878 35.64l-0.685-1.479-26.081 26.081c-8.55 8.789-13.822 20.804-13.822 34.051 0 13.655 5.602 26.002 14.633 34.867l0.008 0.007 47.094 47.124c8.794 8.534 20.805 13.796 34.045 13.796 13.659 0 26.010-5.6 34.884-14.629l0.007-0.007 25.108-25.16c9.491 4.961 20.835 9.787 32.574 13.754l1.741 0.511v35.492q0 0.471 0 0.942c0.312 26.744 22.064 48.303 48.852 48.303 0.131 0 0.261-0.001 0.392-0.002h66.909c26.751-0.346 48.303-22.112 48.303-48.913 0-0.117 0-0.233-0.001-0.349v0.018-35.635c13.524-4.553 24.837-9.366 35.709-14.918l-1.477 0.685 26.071 26.081c8.792 8.565 20.818 13.847 34.077 13.847 13.663 0 26.015-5.608 34.881-14.648l0.008-0.008 46.971-47.053c8.55-8.798 13.822-20.821 13.822-34.076 0-13.653-5.593-26-14.614-34.873l-0.007-0.007-25.252-25.283c4.787-9.364 9.517-20.655 13.442-32.317l0.535-1.833h36.731c26.407-0.725 47.692-21.678 48.943-47.881l0.004-0.114q0-0.563 0-1.116v-65.72q0-0.471 0-0.942c-0.312-26.737-22.055-48.292-48.834-48.302h-36.722c-4.625-13.394-9.363-24.48-14.765-35.175l0.737 1.608 26.675-26.685c8.547-8.788 13.817-20.802 13.817-34.046 0-13.653-5.6-25.997-14.629-34.862l-47.131-47.121c-8.789-8.55-20.804-13.822-34.051-13.822-13.655 0-26.002 5.602-34.867 14.633l-0.007 0.008-25.6 25.6c-9.42-4.97-20.641-9.775-32.263-13.708l-1.683-0.494v-35.942q0-0.471 0-0.942c-0.306-26.748-22.061-48.313-48.852-48.313-0.116 0-0.232 0-0.349 0.001h-66.358zM494.479 180.736h62.054v53.248c0 0.001 0 0.001 0 0.002 0 12.031 8.299 22.124 19.485 24.865l0.175 0.036c21.307 5.166 40.068 13.271 56.996 24.007l-0.768-0.455c3.854 2.448 8.549 3.901 13.583 3.901 7.068 0 13.467-2.864 18.099-7.495l38.011-38.011 43.633 43.633-38.011 38.011c-4.632 4.633-7.496 11.032-7.496 18.1 0 4.785 1.313 9.264 3.598 13.095l-0.065-0.117c9.892 16.498 18.093 35.561 23.616 55.731l0.376 1.613c3.008 11.036 12.942 19.016 24.739 19.016 0 0 0.001 0 0.001 0h53.32v61.747h-53.78c-0.001 0-0.002 0-0.004 0-11.983 0-22.043 8.233-24.832 19.351l-0.038 0.177c-5.387 21.726-13.432 40.836-23.955 58.283l0.526-0.939c-2.261 3.74-3.598 8.258-3.598 13.087 0 7.065 2.862 13.461 7.49 18.094l37.447 37.478-43.54 43.612-37.54-37.54c-4.632-4.631-11.031-7.494-18.098-7.494-4.882 0-9.446 1.367-13.328 3.739l0.112-0.064c-16.504 10.127-35.602 18.311-55.886 23.54l-1.458 0.319c-11.212 2.886-19.364 12.905-19.364 24.829 0 0.001 0 0.002 0 0.003v0 52.808h-62.054v-52.828c-0.002-12.007-8.27-22.083-19.423-24.846l-0.176-0.037c-21.568-5.286-40.551-13.426-57.752-24.156l0.828 0.481c-3.817-2.385-8.453-3.799-13.419-3.799-7.078 0-13.485 2.873-18.12 7.516l-37.448 37.52-43.612-43.633 37.54-37.54c4.616-4.63 7.47-11.019 7.47-18.074 0-4.901-1.377-9.48-3.766-13.372l0.064 0.111c-10.121-16.483-18.303-35.556-23.539-55.814l-0.32-1.459c-2.889-11.205-12.904-19.351-24.821-19.354h-52.798v-62.095h53.248c12.007-0.002 22.083-8.27 24.846-19.423l0.037-0.176c5.286-21.568 13.426-40.551 24.156-57.752l-0.481 0.828c2.385-3.817 3.799-8.453 3.799-13.419 0-7.068-2.864-13.467-7.496-18.1l-37.54-37.57 43.633-43.52 37.601 37.581c4.633 4.634 11.033 7.5 18.104 7.5 4.83 0 9.348-1.338 13.203-3.663l-0.115 0.064c16.508-9.997 35.618-18.042 55.903-23.123l1.441-0.306c11.295-2.826 19.528-12.886 19.528-24.869 0-0.001 0-0.002 0-0.004v0z" />
<glyph unicode="&#xe92e;" glyph-name="profil" d="M517.745 393.892c-57.457 0-108.861 25.498-144.742 71.803-32.451 41.882-50.33 97.679-50.33 157.102s17.859 110.336 51.651 147.395c35.164 38.574 84.756 58.952 143.421 58.952s108.257-20.388 143.421-58.952c33.792-37.059 51.651-88.064 51.651-147.395s-17.879-115.21-50.289-157.102c-35.922-46.305-87.316-71.803-144.783-71.803zM517.745 777.953c-43.878 0-80.384-14.612-105.585-42.25-25.047-27.474-38.277-66.56-38.277-112.896 0-48.128 14.060-92.785 39.598-125.747 18.371-23.706 51.364-51.968 104.264-51.968s85.903 28.262 104.264 51.968c25.539 32.963 39.598 77.619 39.598 125.747 0 46.387-13.24 85.422-38.277 112.896-25.201 27.638-61.706 42.25-105.585 42.25zM802.202 169.892c-11.675 0.007-21.522 7.829-24.593 18.518l-0.044 0.181c-20.224 72.182-57.692 115.026-120.576 137.165-20.675-14.449-66.324-39.762-132.424-39.762s-111.749 25.303-132.424 39.762c-62.915-22.18-100.352-64.973-120.576-137.155-3.117-10.888-12.983-18.724-24.678-18.724-14.152 0-25.625 11.473-25.625 25.625 0 2.457 0.346 4.833 0.991 7.083l-0.044-0.181c13.128 46.868 32.768 83.753 60.058 112.773 27.853 29.624 63.017 50.432 107.52 63.621 2.22 0.714 4.773 1.126 7.423 1.126 6.674 0 12.738-2.613 17.225-6.871l-0.011 0.010c2.488-2.222 41.38-35.84 110.1-35.84 69.53 0 109.66 35.471 110.039 35.84 4.555 4.24 10.684 6.842 17.421 6.842 2.595 0 5.099-0.386 7.459-1.104l-0.181 0.047c44.483-13.189 79.647-33.997 107.52-63.621 27.279-29.020 46.93-65.905 60.058-112.773 0.604-2.072 0.951-4.451 0.951-6.912 0-14.138-11.462-25.6-25.6-25.6-0.007 0-0.013 0-0.020 0h0.001zM591.104 634.204c0-12.108-9.816-21.924-21.924-21.924s-21.924 9.816-21.924 21.924c0 12.108 9.816 21.924 21.924 21.924s21.924-9.816 21.924-21.924zM488.663 634.204c0-12.108-9.816-21.924-21.924-21.924s-21.924 9.816-21.924 21.924c0 12.108 9.816 21.924 21.924 21.924s21.924-9.816 21.924-21.924zM514.888 505.518c-0.071 0-0.156 0-0.24 0-32.655 0-62.218 13.239-83.615 34.642v0c-2.317 2.317-3.75 5.517-3.75 9.052 0 7.070 5.732 12.802 12.802 12.802 3.535 0 6.736-1.433 9.052-3.75v0c16.84-16.802 40.085-27.192 65.756-27.192s48.916 10.39 65.758 27.194l-0.002-0.002c2.317 2.317 5.517 3.75 9.052 3.75 7.070 0 12.802-5.732 12.802-12.802 0-3.535-1.433-6.736-3.75-9.052v0c-21.397-21.403-50.96-34.642-83.615-34.642-0.088 0-0.176 0-0.264 0h0.014z" />
<glyph unicode="&#xe92f;" glyph-name="quality" d="M512 760.218c-68.198 0-123.494-55.296-123.494-123.597s55.296-123.494 123.494-123.494 123.494 55.296 123.494 123.494c0 68.198-55.296 123.494-123.494 123.597zM512 538.726c-54.067 0-97.894 43.827-97.894 97.997 0 54.067 43.827 97.894 97.997 97.894s97.894-43.827 97.894-97.997c-0.102-54.067-43.93-97.792-97.997-97.894zM732.774 613.581l-20.275 46.797 8.192 50.381c1.638 9.933-2.662 19.866-11.059 25.395l-42.291 28.467-20.275 46.797c-3.994 9.216-13.005 15.258-23.040 15.462l-50.995 1.024-42.394 28.365c-8.294 5.53-19.149 5.734-27.648 0.512l-43.418-26.829-50.995 1.024c-10.035 0.205-19.251-5.53-23.552-14.541l-22.118-45.978-43.418-26.726c-8.499-5.222-13.21-15.053-11.981-24.986l6.246-50.586-22.118-46.080c-4.301-9.011-2.97-19.763 3.379-27.443l32.666-39.219 6.246-50.688c1.229-9.933 8.192-18.227 17.715-21.299l38.093-11.981-8.704-281.395c-0.41-14.131 10.65-25.907 24.781-26.419 5.939-0.205 11.776 1.741 16.384 5.325l89.702 69.222 89.805-69.222c11.162-8.602 27.238-6.554 35.942 4.608 3.584 4.71 5.53 10.547 5.325 16.384l-8.602 278.221 33.075 9.011c9.626 2.662 16.896 10.65 18.534 20.582l8.192 50.381 34.099 37.888c6.758 7.578 8.499 18.33 4.506 27.546zM527.667 291.021c-9.216 7.066-22.016 7.066-31.232 0l-62.464-48.23 5.632 180.634c5.939-3.584 13.21-4.608 19.968-2.765l49.254 13.414 48.64-15.36c9.523-2.97 19.968-0.205 26.726 7.27l0.41 0.41 5.734-183.706-62.669 48.333zM651.059 577.024c-3.277-3.686-5.427-8.192-6.246-13.005l-6.758-41.574-40.653-11.059c-4.71-1.331-9.011-3.891-12.288-7.578l-28.058-31.232-40.141 12.595c-4.71 1.434-9.728 1.536-14.438 0.307l-40.653-11.059-26.931 32.358c-3.174 3.789-7.27 6.554-11.981 7.987l-40.141 12.595-5.222 41.779c-0.614 4.915-2.56 9.421-5.734 13.21l-26.931 32.358 18.227 37.888c2.15 4.403 2.97 9.318 2.355 14.234l-5.222 41.779 35.84 22.118c4.198 2.56 7.578 6.246 9.626 10.752l18.227 37.888 42.086-0.819c4.915-0.102 9.728 1.229 13.926 3.789l35.84 22.118 34.918-23.45c4.096-2.662 8.909-4.198 13.722-4.198l42.086-0.819 16.691-38.605c1.946-4.506 5.12-8.294 9.216-11.059l34.918-23.45-6.758-41.574c-0.819-4.813-0.205-9.83 1.741-14.336l16.691-38.605-27.955-31.334z" />
<glyph unicode="&#xe930;" glyph-name="question" d="M512 147.712c-0.001 0-0.003 0-0.004 0-180.407 0-326.656 146.249-326.656 326.656s146.249 326.656 326.656 326.656c180.407 0 326.656-146.249 326.656-326.656 0-90.205-36.564-171.87-95.678-230.984v0c-58.786-59.099-140.165-95.674-230.086-95.674-0.312 0-0.624 0-0.935 0.001h0.048zM512 749.824c-0.001 0-0.002 0-0.004 0-152.13 0-275.456-123.326-275.456-275.456s123.326-275.456 275.456-275.456c152.13 0 275.456 123.326 275.456 275.456 0 76.064-30.831 144.928-80.678 194.775v0c-49.571 49.832-118.193 80.672-194.017 80.672-0.266 0-0.533 0-0.799-0.001h0.041zM513.3 360.602c-13.365 0.017-24.329 10.272-25.47 23.343l-0.007 0.096-5.581 65.649c-0.058 0.648-0.091 1.401-0.091 2.162 0 14.048 11.316 25.454 25.33 25.599h0.014c0.195 0 27.116 0.553 52.797 11.264 13.486 5.632 23.992 12.954 31.222 21.76 8.602 10.496 12.79 23.316 12.79 39.209 0 39.864-29.696 57.344-47.35 64.256-35.707 13.906-91.136 10.312-128.553-30.413-4.679-4.956-11.294-8.041-18.629-8.041-14.138 0-25.6 11.462-25.6 25.6 0 6.566 2.472 12.555 6.536 17.086l-0.021-0.024c23.233 25.199 53.93 43.197 88.57 50.486l1.091 0.192c32.195 6.748 65.997 4.198 95.232-7.168 50.074-19.456 79.964-61.358 79.964-111.964 0-50.043-27.361-88.709-77.046-108.861-12.35-5.077-26.81-9.196-41.822-11.676l-1.186-0.162 3.451-40.622c0.057-0.641 0.090-1.387 0.090-2.14 0-13.373-10.255-24.352-23.33-25.501l-0.097-0.007q-1.208-0.133-2.304-0.123zM512 253.86c-21.207 0-38.4 13.855-38.4 30.945v17.582c0 17.091 17.193 30.945 38.4 30.945s38.4-13.855 38.4-30.945v-17.582c0-17.091-17.193-30.945-38.4-30.945z" />
<glyph unicode="&#xe931;" glyph-name="real-time" d="M512 147.712c-0.001 0-0.003 0-0.004 0-180.407 0-326.656 146.249-326.656 326.656s146.249 326.656 326.656 326.656c180.407 0 326.656-146.249 326.656-326.656 0-90.205-36.564-171.87-95.678-230.984v0c-58.786-59.099-140.165-95.674-230.086-95.674-0.312 0-0.624 0-0.935 0.001h0.048zM512 749.824c-0.001 0-0.002 0-0.004 0-152.13 0-275.456-123.326-275.456-275.456s123.326-275.456 275.456-275.456c152.13 0 275.456 123.326 275.456 275.456 0 76.064-30.831 144.928-80.678 194.775v0c-49.571 49.832-118.193 80.672-194.017 80.672-0.266 0-0.533 0-0.799-0.001h0.041zM513.311 405.309c-0.018 0-0.040 0-0.061 0-4.597 0-8.911 1.212-12.64 3.333l0.126-0.066-121.958 68.444c-7.874 4.473-13.099 12.803-13.099 22.354 0 14.151 11.472 25.623 25.623 25.623 4.601 0 8.918-1.212 12.65-3.335l-0.127 0.066 99.092-55.593 109.435 207.462c4.294 8.467 12.934 14.169 22.906 14.169 14.138 0 25.6-11.462 25.6-25.6 0-4.567-1.196-8.854-3.291-12.566l0.066 0.128-121.682-230.758c-4.381-8.185-12.871-13.658-22.64-13.66v0z" />
<glyph unicode="&#xe932;" glyph-name="recruting" d="M896.154 199.803l-172.114 179.128c28.629 46.354 45.592 102.546 45.592 162.7 0 172.919-140.179 313.098-313.098 313.098s-313.098-140.179-313.098-313.098c0-172.919 140.179-313.098 313.098-313.098 53.777 0 104.387 13.558 148.6 37.442l-1.66-0.82 173.302-180.367c4.556-4.734 10.902-7.716 17.946-7.854h0.517c0.003 0 0.007 0 0.011 0 6.904 0 13.169 2.733 17.773 7.175l-0.008-0.007 82.452 79.534c4.83 4.663 7.83 11.195 7.83 18.427 0 6.891-2.723 13.146-7.151 17.748l0.008-0.008zM193.536 542.208c0 0.009 0 0.020 0 0.031 0 144.987 117.535 262.523 262.523 262.523s262.523-117.535 262.523-262.523c0-66.168-24.479-126.618-64.876-172.788l0.261 0.305c-20.050 41.318-51.886 67.492-98.079 81.183-1.078 0.328-2.318 0.517-3.601 0.517-3.386 0-6.466-1.315-8.755-3.462l0.007 0.006c-0.276-0.256-28.416-25.846-78.725-25.846-0.319-0.003-0.696-0.004-1.074-0.004-20.729 0-40.348 4.75-57.829 13.222l0.791-0.346c-13.343 6.461-20.603 12.974-20.654 12.974-2.281 2.133-5.354 3.442-8.733 3.442-1.266 0-2.49-0.184-3.645-0.526l0.091 0.023c-50.77-15.053-84.193-45.169-103.69-93.921-47.284 47.209-76.535 112.468-76.535 184.558 0 0.222 0 0.445 0.001 0.667v-0.034zM290.468 338.432c15.36 44.687 41.81 71.68 84.255 85.893 12.452-9.144 43.592-27.812 90.112-27.812s77.64 18.678 90.112 27.812c38.676-12.995 64.092-36.516 79.872-74.414-46.731-43.541-109.63-70.268-178.771-70.268-62.989 0-120.797 22.182-166.039 59.161l0.47-0.372zM795.924 138.752l-148.664 154.726c11.234 8.714 21.223 17.535 30.627 26.941v0q8.049 8.049 15.432 16.579l148.214-154.214zM460.134 465.5c37.888 0 71.844 16.835 95.529 47.411 21.617 27.904 33.526 65.147 33.526 104.858 0 39.516-11.817 73.37-34.181 97.905-23.194 25.446-56.003 38.912-94.874 38.912s-71.68-13.445-94.874-38.912c-22.364-24.576-34.191-58.368-34.191-97.905 0-39.711 11.909-76.954 33.526-104.858 23.695-30.577 57.62-47.411 95.539-47.411zM384.184 698.419c18.217 19.978 44.472 30.536 75.95 30.536s57.733-10.557 75.95-30.536c17.992-19.732 27.505-47.626 27.505-80.66 0-34.068-10.004-65.741-28.16-89.18-13.251-17.101-37.069-37.489-75.295-37.489s-62.044 20.398-75.295 37.499c-18.166 23.439-28.16 55.112-28.16 89.18 0 32.983 9.513 60.918 27.505 80.65zM510.454 625.592c0-8.308-6.735-15.043-15.043-15.043s-15.043 6.735-15.043 15.043c0 8.308 6.735 15.043 15.043 15.043s15.043-6.735 15.043-15.043zM440.187 625.592c0-8.308-6.735-15.043-15.043-15.043s-15.043 6.735-15.043 15.043c0 8.308 6.735 15.043 15.043 15.043s15.043-6.735 15.043-15.043zM458.179 533.248c0.082 0 0.18 0 0.277 0 23.503 0 44.774 9.56 60.135 25.003l0.004 0.004c2.317 2.317 3.75 5.517 3.75 9.052 0 7.070-5.732 12.802-12.802 12.802-3.535 0-6.736-1.433-9.052-3.75v0c-10.818-10.818-25.763-17.509-42.271-17.509s-31.453 6.691-42.271 17.509v0c-2.317 2.317-5.517 3.75-9.052 3.75-7.070 0-12.802-5.732-12.802-12.802 0-3.535 1.433-6.736 3.75-9.052v0c15.365-15.447 36.635-25.006 60.139-25.006 0.069 0 0.137 0 0.206 0h-0.011z" />
<glyph unicode="&#xe933;" glyph-name="refresh" d="M805.069 473.6c-14.131 0-25.6-11.469-25.6-25.6v0c0-147.763-119.91-267.571-267.674-267.469-55.501 0-109.67 17.306-154.931 49.459l58.88 11.571c13.824 2.765 22.938 16.179 20.173 30.106-2.765 13.824-16.179 22.938-30.106 20.173l-116.429-22.835c-13.824-2.765-22.835-16.179-20.173-30.106l22.938-116.429c2.765-13.824 16.179-22.938 30.106-20.173 13.824 2.765 22.938 16.179 20.173 30.106l-10.342 52.429c145.306-99.328 343.654-62.054 443.085 83.251 36.25 53.043 55.603 115.712 55.603 179.917 0 14.131-11.469 25.6-25.702 25.6 0.102 0 0.102 0 0 0zM512 715.469c55.603 0.102 109.875-17.203 155.136-49.459l-58.88-11.571c-13.824-2.765-22.938-16.179-20.173-30.106 2.765-13.824 16.179-22.938 30.106-20.173v0l116.429 22.938c13.824 2.765 22.938 16.179 20.173 30.003l-22.835 116.429c-2.765 13.824-16.179 22.938-30.106 20.173s-22.938-16.179-20.173-30.106l10.342-52.531c-145.306 99.328-343.654 62.054-443.085-83.251-36.25-53.043-55.603-115.712-55.603-179.917 0-14.131 11.469-25.6 25.6-25.6s25.6 11.469 25.6 25.6c-0.102 147.866 119.706 267.571 267.469 267.571 0 0 0 0 0 0z" />
<glyph unicode="&#xe934;" glyph-name="reservation" d="M764.447 691.773h-67.738v36.485c0 14.138-11.462 25.6-25.6 25.6s-25.6-11.462-25.6-25.6v0-36.485h-267.827v36.485c0 14.138-11.462 25.6-25.6 25.6s-25.6-11.462-25.6-25.6v0-36.485h-66.929c-23.294-0.076-42.148-18.976-42.148-42.281 0-0.011 0-0.022 0-0.033v0.002-401.818c0-0.015 0-0.033 0-0.051 0-23.304 18.854-42.205 42.141-42.281h504.9c23.294 0.076 42.148 18.976 42.148 42.281 0 0.011 0 0.022 0 0.033v-0.002 401.848c0 0.006 0 0.013 0 0.021 0 23.304-18.854 42.205-42.141 42.281h-0.007zM326.482 640.573v-8.438c0-14.138 11.462-25.6 25.6-25.6s25.6 11.462 25.6 25.6v0 8.438h267.827v-8.438c0-14.138 11.462-25.6 25.6-25.6s25.6 11.462 25.6 25.6v0 8.438h58.685v-93.706l-486.799 6.257v87.45zM268.605 256.512v271.002l486.799-6.257v-264.745zM705.362 435.896c-2.316 2.317-5.517 3.75-9.052 3.75s-6.736-1.433-9.052-3.75l-23.48-23.48-23.48 23.48c-2.317 2.317-5.517 3.75-9.052 3.75-7.070 0-12.802-5.732-12.802-12.802 0-3.535 1.433-6.736 3.75-9.052l23.48-23.48-23.48-23.48c-2.073-2.267-3.344-5.298-3.344-8.627 0-7.069 5.731-12.8 12.8-12.8 3.339 0 6.379 1.278 8.657 3.372l-0.009-0.008 23.48 23.48 23.48-23.48c2.317-2.317 5.517-3.75 9.052-3.75 7.070 0 12.802 5.732 12.802 12.802 0 3.535-1.433 6.736-3.75 9.052v0l-23.48 23.439 23.48 23.48c2.317 2.316 3.75 5.517 3.75 9.052s-1.433 6.736-3.75 9.052v0z" />
<glyph unicode="&#xe935;" glyph-name="reverse" d="M741.734 436.019l-114.944 114.493c-4.631 4.622-11.024 7.48-18.084 7.48s-13.453-2.858-18.084-7.48v0l-114.463-114.524c-4.633-4.633-7.499-11.034-7.499-18.104 0-14.14 11.463-25.603 25.603-25.603 7.070 0 13.471 2.866 18.104 7.499l73.001 73.001v-187.597c-1.147-55.503-46.412-100.058-102.083-100.058s-100.936 44.555-102.081 99.951l-0.002 0.107v481.915c0 14.138-11.462 25.6-25.6 25.6s-25.6-11.462-25.6-25.6v0-482.181c0-0.174 0-0.348 0-0.522 1.745-83.291 69.651-150.149 153.185-150.2h0.005c1.024 0 2.13 0 3.195 0 82.232 1.74 148.434 67.963 150.136 150.039l0.003 0.161c0 0.174 0 0.348 0 0.522v183.624l69.059-68.792c4.637-4.656 11.052-7.537 18.141-7.537 14.138 0 25.6 11.462 25.6 25.6 0 7.122-2.908 13.564-7.601 18.205l-0.002 0.002z" />
<glyph unicode="&#xe936;" glyph-name="rollback" d="M849.664 668.467l-216.238 60.416c-2.063 0.598-4.432 0.942-6.881 0.942-11.689 0-21.548-7.834-24.614-18.538l-0.044-0.181-60.416-216.238c-0.602-2.070-0.948-4.448-0.948-6.907 0-14.159 11.478-25.637 25.637-25.637 11.7 0 21.569 7.838 24.644 18.549l0.044 0.181 43.919 157.317 0.553-0.584c42.005-41.999 67.986-100.024 67.986-164.116 0-128.171-103.901-232.075-232.072-232.079v0c-0.001 0-0.002 0-0.003 0-128.174 0-232.079 103.905-232.079 232.079 0 64.067 25.96 122.071 67.936 164.066l0.132 0.132c4.68 4.64 7.578 11.072 7.578 18.181 0 14.138-11.462 25.6-25.6 25.6-7.030 0-13.398-2.833-18.024-7.421l-0.264-0.264c-51.255-51.262-82.956-122.076-82.956-200.294 0-156.441 126.812-283.263 283.249-283.279h0.002c0.006 0 0.014 0 0.022 0 156.445 0 283.269 126.824 283.269 283.269 0 72.369-27.138 138.4-71.794 188.471l0.245-0.28 152.955-42.701c2.063-0.598 4.432-0.942 6.881-0.942 14.139 0 25.6 11.462 25.6 25.6 0 11.689-7.834 21.548-18.538 24.614l-0.181 0.044z" />
<glyph unicode="&#xe937;" glyph-name="safety" d="M773.939 485.007c-15.365 15.395-36.539 24.988-59.954 25.211h-0.042v104.243c0 99.062-80.589 179.651-179.651 179.651s-179.64-80.589-179.64-179.651v-104.233c-47.367-0.521-85.566-39.041-85.566-86.482 0-0.038 0-0.075 0-0.113v0.006-206.305c0.209-47.6 38.831-86.11 86.454-86.139h357.655c47.339 0.603 85.558 38.804 86.189 86.079l0.001 0.060v206.551c0 0.023 0 0.051 0 0.078 0 23.869-9.73 45.465-25.44 61.038l-0.006 0.006zM534.303 742.912c70.904-0.087 128.359-57.546 128.44-128.443v-104.22h-256.891v104.212c0.081 70.908 57.542 128.369 128.443 128.451h0.008zM748.175 217.856c-0.212-19.502-15.968-35.255-35.452-35.461h-357.13c0 0 0 0 0 0-19.464 0-35.249 15.749-35.307 35.2v206.086c0 0.015 0 0.033 0 0.051 0 19.467 15.755 35.255 35.21 35.307h19.287c1.654-0.381 3.554-0.599 5.504-0.599s3.85 0.218 5.675 0.631l-0.171-0.033h327.086c19.459-0.006 35.239-15.753 35.297-35.2v-0.006z" />
<glyph unicode="&#xe938;" glyph-name="sales" d="M816.927 614.369l-78.623 179.743c-6.284 13.646-18.277 23.742-32.832 27.322l-0.336 0.070-105.708 26.337c-3.635 0.964-7.807 1.517-12.109 1.517-11.18 0-21.486-3.738-29.738-10.032l0.119 0.087-0.246-0.184-154.378-122.225c-8.173-6.696-14.098-15.863-16.643-26.351l-0.069-0.334-117.34-470.671c-0.965-3.616-1.52-7.768-1.52-12.049 0-22.425 15.214-41.297 35.884-46.856l0.339-0.078 339.241-84.552c3.623-0.97 7.782-1.527 12.072-1.527 22.463 0 41.358 15.275 46.865 36.004l0.076 0.338 0.184 0.737 117.238 470.262c1.179 3.875 1.857 8.329 1.857 12.941 0 7.079-1.599 13.786-4.455 19.777l0.119-0.278zM653.087 126.372l-333.824 83.22 8.509 34.109 333.824-83.22zM667.781 185.324l-333.824 83.22 102.031 409.221 151.788 120.207 104.284-25.999 77.691-177.541zM635.494 766.996v0c-4.297 1.118-9.229 1.76-14.311 1.76-32.626 0-59.075-26.449-59.075-59.075s26.449-59.075 59.075-59.075c27.55 0 50.695 18.859 57.23 44.372l0.089 0.409c1.105 4.275 1.74 9.183 1.74 14.239 0 27.555-18.843 50.71-44.347 57.28l-0.41 0.090zM653.681 701.573c-3.752-14.697-16.873-25.391-32.492-25.391-18.493 0-33.485 14.992-33.485 33.485s14.992 33.485 33.485 33.485c2.88 0 5.676-0.364 8.343-1.048l-0.232 0.050c14.686-3.773 25.365-16.894 25.365-32.509 0-2.862-0.359-5.641-1.034-8.293l0.050 0.232zM504.453 486.062c1.49-0.311 3.202-0.489 4.955-0.489 12.42 0 22.755 8.931 24.932 20.721l0.024 0.156c2.662 14.090-6.144 28.252-20.204 30.925s-28.447-7.168-31.109-21.207 7.311-27.443 21.402-30.106zM616.755 462.715c1.493-0.297 3.21-0.467 4.966-0.467 14.705 0 26.625 11.921 26.625 26.625 0 12.948-9.243 23.738-21.491 26.131l-0.168 0.027c-14.090 2.662-27.443-7.311-30.106-21.402s6.144-28.252 20.204-30.925zM540.436 345.846c37.222-7.045 78.131-0.205 111.821 23.644 5.98 4.096 7.506 12.124 3.236 17.101-4.096 5.98-11.121 7.322-17.101 3.236-57.252-38.144-134.717-23.47-173.056 32.768-2.367 3.468-6.3 5.715-10.759 5.715-2.75 0-5.299-0.855-7.399-2.313l0.043 0.028c-5.796-3.072-7.322-11.121-3.236-17.101 22.137-32.473 56.080-55.491 95.526-62.933l0.925-0.145z" />
<glyph unicode="&#xe939;" glyph-name="screwdriver" d="M301.271 114.79c-3.317 0.005-6.483 0.64-9.389 1.791l0.173-0.061c-12.728 4.936-55.532 22.333-71.946 38.738s-33.792 59.208-38.738 71.936c-1.097 2.746-1.733 5.928-1.733 9.259 0 7.11 2.899 13.543 7.578 18.182l0.002 0.002 314.235 311.48c-4.551 15.752-7.168 33.845-7.168 52.549 0 0.112 0 0.225 0 0.337v-0.017c0 108.462 88.238 196.7 196.7 196.7 0.005 0 0.010 0 0.016 0 21.249 0 41.711-3.371 60.88-9.607l-1.391 0.391c10.428-3.395 17.831-13.029 17.831-24.393 0-7.065-2.862-13.461-7.489-18.093v0l-79.452-79.442 16.056-59.914 59.914-16.056 78.991 79.043c4.633 4.635 11.035 7.503 18.106 7.503 11.444 0 21.134-7.509 24.412-17.868l0.050-0.181c5.535-17.325 8.725-37.254 8.725-57.927 0-0.047 0-0.094 0-0.14v0.007c0-108.462-88.238-196.7-196.7-196.7-0.064 0-0.139 0-0.214 0-21.205 0-41.623 3.371-60.747 9.607l1.385-0.391-312.064-309.248c-4.616-4.61-10.984-7.466-18.019-7.485h-0.004zM235.418 230.369c7.526-17.203 16.323-34.386 20.849-38.912s21.811-13.384 39.066-20.92l311.532 308.767c4.624 4.584 10.991 7.417 18.020 7.417 3.572 0 6.973-0.731 10.061-2.053l-0.167 0.063c16.519-7.122 35.751-11.264 55.95-11.264 0.072 0 0.144 0 0.217 0h-0.011c78.971 0 143.452 63.242 145.408 141.742l-53.248-53.248c-4.633-4.633-11.033-7.498-18.102-7.498-2.357 0-4.64 0.319-6.807 0.915l0.18-0.042-88.463 23.685c-8.849 2.426-15.678 9.255-18.062 17.925l-0.042 0.18-23.706 88.443c-0.554 1.988-0.873 4.271-0.873 6.628 0 7.069 2.865 13.469 7.498 18.102l54.159 54.159c-79.278-1.065-143.432-65.925-143.432-145.449 0-0.036 0-0.079 0-0.121 0-18.272 3.381-35.755 9.55-51.857l-0.334 0.993c1.028-2.665 1.623-5.748 1.623-8.97 0-7.111-2.9-13.545-7.581-18.184l-0.002-0.002z" />
<glyph unicode="&#xe93a;" glyph-name="search" d="M885.34 199.803l-172.114 179.128c28.629 46.354 45.592 102.546 45.592 162.7 0 172.919-140.179 313.098-313.098 313.098s-313.098-140.179-313.098-313.098c0-172.919 140.179-313.098 313.098-313.098 53.777 0 104.387 13.558 148.6 37.442l-1.66-0.82 173.292-180.367c4.556-4.734 10.902-7.716 17.946-7.854h0.486c0.003 0 0.007 0 0.011 0 6.904 0 13.169 2.733 17.773 7.175l-0.008-0.007 82.452 79.534c4.843 4.665 7.851 11.205 7.851 18.448 0 6.881-2.715 13.128-7.132 17.728l0.008-0.009zM259.615 356.618c-47.507 47.507-76.89 113.138-76.89 185.631 0 144.987 117.535 262.523 262.523 262.523s262.523-117.535 262.523-262.523c0-144.987-117.535-262.523-262.523-262.523-0.001 0-0.001 0-0.002 0v0c-0.21-0.001-0.458-0.001-0.707-0.001-72.271 0-137.677 29.395-184.913 76.882l-0.011 0.011zM785.111 138.752l-148.664 154.726c11.239 8.712 21.232 17.529 30.639 26.933l-0.001-0.001q8.049 8.049 15.432 16.579l148.204-154.204z" />
<glyph unicode="&#xe93b;" glyph-name="star" d="M725.094 116.941c-11.162 0-21.914 3.686-30.925 10.24l-175.514 127.488c-3.994 2.867-9.421 2.867-13.414 0l-175.411-127.59c-23.45-17.101-56.32-11.878-73.421 11.674-9.933 13.619-12.698 31.13-7.475 47.104l67.072 206.336c1.536 4.71-0.102 9.83-4.096 12.8l-175.616 127.488c-23.45 17.101-28.672 49.869-11.571 73.421 9.933 13.619 25.702 21.606 42.496 21.606h216.986c4.915 0 9.318 3.174 10.854 7.885l67.072 206.336c6.861 21.811 27.136 36.557 49.971 36.25v0c22.835 0.205 43.11-14.541 49.971-36.352l66.867-206.234c1.536-4.71 5.939-7.885 10.854-7.885h216.986c28.979 0 52.531-23.552 52.531-52.531 0-16.794-8.090-32.563-21.606-42.496l-175.514-127.59c-3.994-2.867-5.632-8.090-4.096-12.8l66.97-206.234c7.27-21.606-0.41-45.466-19.046-58.675-9.011-6.656-19.866-10.24-30.925-10.24zM512 308.019c13.21 0 26.112-4.198 36.762-11.981l175.514-127.488c0.614-0.41 0.819-0.512 1.536 0s0.717 0.819 0.512 1.536l-66.97 206.234c-8.397 25.805 0.717 54.067 22.733 70.042l175.514 127.59c0.614 0.41 0.819 0.512 0.512 1.536s-0.512 0.922-1.229 0.922h-217.088c-27.136 0-51.2 17.408-59.597 43.213l-66.97 206.234c-0.205 0.717-0.307 0.922-1.229 0.922s-1.024-0.205-1.229-0.922l-67.072-206.336c-8.294-25.805-32.358-43.315-59.494-43.213h-216.986c-0.717 0-0.922 0-1.229-0.922s-0.102-1.024 0.512-1.536l175.514-127.488c22.016-15.872 31.232-44.237 22.733-70.042l-67.072-206.336c-0.205-0.717-0.307-0.922 0.512-1.536s1.024-0.41 1.536 0l175.514 127.488c10.65 7.885 23.552 12.083 36.762 12.083z" />
<glyph unicode="&#xe93c;" glyph-name="transport" d="M321.884 373.494c-52.126 0-94.382-42.256-94.382-94.382s42.256-94.382 94.382-94.382c52.126 0 94.382 42.256 94.382 94.382v0c-0.058 52.102-42.28 94.324-94.377 94.382h-0.005zM321.884 235.93c-23.849 0-43.182 19.333-43.182 43.182s19.333 43.182 43.182 43.182c23.849 0 43.182-19.333 43.182-43.182v0c-0.029-23.837-19.345-43.153-43.179-43.182h-0.003zM741.693 373.494c-52.126 0-94.382-42.256-94.382-94.382s42.256-94.382 94.382-94.382c52.126 0 94.382 42.256 94.382 94.382v0c-0.058 52.102-42.28 94.324-94.377 94.382h-0.005zM741.693 235.93c-23.849 0-43.182 19.333-43.182 43.182s19.333 43.182 43.182 43.182c23.849 0 43.182-19.333 43.182-43.182v0c-0.029-23.837-19.345-43.153-43.179-43.182h-0.003zM930.908 456.694l-107.991 174.961c-10.492 17.037-29.019 28.24-50.167 28.303h-101.539v32.492c-0.31 32.943-26.939 59.565-59.855 59.863h-470.044c-32.936-0.31-59.553-26.927-59.863-59.833v-346.879c0.201-33.020 26.859-59.746 59.833-60.057h23.715c14.138 0 25.6 11.462 25.6 25.6s-11.462 25.6-25.6 25.6v0h-23.45c-4.893 0.063-8.842 4.015-8.899 8.903v346.568c0.068 4.887 4.012 8.83 8.892 8.898h469.571c4.887-0.068 8.83-4.012 8.898-8.892v-224.651c0-14.138 11.462-25.6 25.6-25.6s25.6 11.462 25.6 25.6v0 141.199h101.54c2.681-0.013 5.027-1.439 6.33-3.572l0.019-0.033 107.96-174.909c2.669-4.42 4.26-9.752 4.291-15.454v-74.106c0-0.003 0-0.007 0-0.011 0-2.171-1.745-3.934-3.909-3.963h-6.802c-14.138 0-25.6-11.462-25.6-25.6s11.462-25.6 25.6-25.6v0h6.973c30.363 0.18 54.907 24.835 54.907 55.223 0 0.026 0 0.051 0 0.077v-0.004 74.056c-0.044 15.446-4.356 29.877-11.817 42.185l0.205-0.365z" />
<glyph unicode="&#xe93d;" glyph-name="upturn" d="M679.27 753.838c-0.287 0.287-7.578 7.414-18.104 7.414v0c-10.527 0-17.818-7.168-18.104-7.414l-165.724-165.734c-4.633-4.633-7.499-11.034-7.499-18.104 0-14.14 11.463-25.603 25.603-25.603 7.070 0 13.471 2.866 18.104 7.499l122.030 122.030v-445.225c0-14.138 11.462-25.6 25.6-25.6s25.6 11.462 25.6 25.6v0 445.225l122.030-122.030c4.624-4.584 10.991-7.416 18.020-7.416 14.138 0 25.6 11.462 25.6 25.6 0 7.031-2.835 13.4-7.423 18.027l-165.732 165.732zM326.82 205.394c0.287-0.287 7.578-7.414 18.104-7.414v0c10.527 0 17.818 7.168 18.104 7.414l165.734 165.734c4.632 4.634 7.498 11.034 7.498 18.104 0 14.142-11.465 25.607-25.607 25.607-7.072 0-13.475-2.867-18.109-7.503l-122.020-122.040v445.225c0 14.138-11.462 25.6-25.6 25.6s-25.6-11.462-25.6-25.6v0-445.225l-122.030 122.040c-4.624 4.584-10.991 7.416-18.020 7.416-14.138 0-25.6-11.462-25.6-25.6 0-7.031 2.835-13.4 7.423-18.027l165.722-165.732z" />
<glyph unicode="&#xe93e;" glyph-name="wireless" d="M382.976 355.226c0-26.354-21.364-47.718-47.718-47.718s-47.718 21.364-47.718 47.718c0 26.354 21.364 47.718 47.718 47.718s47.718-21.364 47.718-47.718zM502.477 304.435c-14.131 0-25.6 11.469-25.6 25.6 0 91.955-74.854 166.81-166.81 166.81-14.131 0-25.6 11.469-25.6 25.6s11.469 25.6 25.6 25.6c120.218 0 218.010-97.792 218.010-218.010 0-14.234-11.469-25.6-25.6-25.6v0zM638.976 304.435c-14.131 0-25.6 11.469-25.6 25.6 0 167.526-135.885 303.411-303.411 303.411-14.131 0-25.6 11.469-25.6 25.6s11.469 25.6 25.6 25.6c195.686 0.205 354.406-158.31 354.611-353.997 0-0.205 0-0.41 0-0.614 0-14.234-11.366-25.6-25.6-25.6zM782.029 304.435c-14.131 0-25.6 11.469-25.6 25.6 0.205 246.374-199.27 446.259-445.542 446.464-0.307 0-0.614 0-0.922 0-14.131 0-25.6 11.469-25.6 25.6s11.469 25.6 25.6 25.6c274.637 0.205 497.459-222.208 497.664-496.742 0-0.307 0-0.614 0-0.922 0-14.234-11.469-25.6-25.6-25.6z" />
</font>
</defs>
</svg>
