<svg viewBox="0 0 85 100" version="1.1" xmlns="http://www.w3.org/2000/svg" xmlns:xlink="http://www.w3.org/1999/xlink">
	<g stroke="none" stroke-width="1" fill="none" fill-rule="evenodd">
		<g transform="translate(-48.000000, -40.000000)" fill="#000">
			<path d="M48,137.617555 L59.2852665,137.617555 L59.8495298,67.3667712 L48.5642633,67.3667712 L48,137.617555 Z M48,52.6959248 L60.1316614,52.6959248 L60.1316614,40 L48,40 L48,52.6959248 Z M121.965517,116.77116 C116.009404,123.471787 112.435737,125.556426 107.224138,125.556426 C97.992163,125.556426 91.4404389,115.579937 91.4404389,101.880878 C91.4404389,87.5862069 98.2899687,77.7586207 108.117555,77.7586207 C113.031348,77.7586207 116.605016,79.6943574 122.11442,85.3526646 L132.239812,75.3761755 C123.007837,66.5909091 116.30721,63.4639498 106.926332,63.4639498 C87.7178683,63.4639498 73.5721003,79.992163 73.5721003,102.476489 C73.5721003,124.216301 87.1222571,140 105.884013,140 C115.711599,140 122.561129,136.426332 131.942006,126.449843 L121.965517,116.77116 Z" />
		</g>
	</g>
</svg>
